<?xml version="1.0" encoding="UTF-8"?>
<svg width="800" height="800" version="1.1" viewBox="0 0 800.00001 800.00001" xmlns="http://www.w3.org/2000/svg">
 <defs>
  <mask id="e" maskUnits="userSpaceOnUse">
   <circle cx="400" cy="652.36" r="400" color="#000000" color-rendering="auto" fill="#fff" fill-rule="evenodd" image-rendering="auto" shape-rendering="auto" solid-color="#000000" style="isolation:auto;mix-blend-mode:normal"/>
  </mask>
  <mask id="f" maskUnits="userSpaceOnUse">
   <circle cx="400" cy="400" r="400" color="#000000" color-rendering="auto" fill="#fff" fill-rule="evenodd" image-rendering="auto" shape-rendering="auto" solid-color="#000000" style="isolation:auto;mix-blend-mode:normal"/>
  </mask>
  <linearGradient id="d" x1="376.99" x2="143.68" y1="496.83" y2="685.73" gradientUnits="userSpaceOnUse">
   <stop offset="0"/>
   <stop stop-opacity="0" offset="1"/>
  </linearGradient>
 </defs>
 <g transform="translate(0 -252.36)">
  <circle cx="400" cy="652.36" r="400" color="#000000" color-rendering="auto" fill="#1c8adb" fill-rule="evenodd" image-rendering="auto" shape-rendering="auto" solid-color="#000000" style="isolation:auto;mix-blend-mode:normal"/>
  <path transform="translate(0 252.36)" d="m397.02 215.37c-5.0099 0-9.6733 0.94934-13.992 2.8496-4.3189 1.7276-8.12 4.2333-11.402 7.5156l-343.14 343.14s50.531 186.49 270.03 221.54l205.79-205.79v-37.572h-77.48v-222.6h-53.119l48.455-48.457c3.2823-3.2823 5.7861-7.0835 7.5137-11.402 1.9003-4.3189 2.8516-8.8972 2.8516-13.734 0-5.0098-0.95129-9.5883-2.8516-13.734-1.7276-4.319-4.2314-8.1181-7.5137-11.4-3.1096-3.2823-6.8237-5.788-11.143-7.5156-4.319-1.9003-8.9843-2.8496-13.994-2.8496z" fill="url(#d)" mask="url(#f)" opacity=".42"/>
  <path d="m381.21 614.14h-76.962v-37.315h122.57v222.59h77.481v37.574h-208.6v-37.574h85.514v-185.28zm15.807-146.41q7.5148 0 13.993 2.8504 6.4783 2.5914 11.143 7.5149 4.9235 4.9235 7.5149 11.402 2.8504 6.2192 2.8504 13.734 0 7.2558-2.8504 13.734-2.5914 6.4783-7.5149 11.402-4.6644 4.9236-11.143 7.774-6.4784 2.5913-13.993 2.5913-7.5149 0-13.993-2.5913-6.4783-2.8504-11.402-7.774-4.6645-4.9235-7.5149-11.402-2.5913-6.4783-2.5913-13.734 0-7.5148 2.5913-13.734 2.8504-6.4784 7.5149-11.402 4.9235-4.9235 11.402-7.5149 6.4783-2.8504 13.993-2.8504z" fill="#fff" mask="url(#e)"/>
 </g>
</svg>
