<?xml version="1.0" encoding="UTF-8"?>
<svg data-name="Ebene 1" viewBox="0 0 800 800" xmlns="http://www.w3.org/2000/svg">
 <defs>
  <clipPath id="d">
   <circle cx="400" cy="400" r="400" fill="none"/>
  </clipPath>
  <linearGradient id="c" x1="454.35" x2="164" y1="345.65" y2="636" gradientUnits="userSpaceOnUse">
   <stop offset="0"/>
   <stop stop-opacity="0" offset="1"/>
  </linearGradient>
 </defs>
 <circle cx="400" cy="400" r="400" fill="#1c8adb"/>
 <g clip-path="url(#d)">
  <path d="m319.22 796.22c143.03-143 279.92-279.83 280.84-280.74a10.567 10.567 0 0 0 3.1046 -7.4951v-215.97a10.6 10.6 0 0 0 -10.6 -10.6h-385.12a10.575 10.575 0 0 0 -7.9817 3.6248l-195.71 195.7c35.913 157.13 133.32 268.11 315.48 315.48z" fill="url(#c)" opacity=".42"/>
  <path d="m592.56 281.42h-385.12a10.6 10.6 0 0 0 -10.6 10.6v215.97a10.6 10.6 0 0 0 10.6 10.6h385.12a10.6 10.6 0 0 0 10.6 -10.6v-215.97a10.6 10.6 0 0 0 -10.6 -10.6zm-83.915 37.32h33.919v33.919h-33.919zm16.96 77.378h-33.92v-33.919h33.919zm16.96 9.54v33.919h-33.92v-33.92zm-268.17-9.54v-33.919h33.919v33.919zm7.42 9.54v33.919h-33.92v-33.92zm9.54 0h33.919v33.919h-33.92zm26.499-9.54v-33.919h33.919v33.919zm16.96 9.54h33.919v33.919h-33.921zm26.499-9.54v-33.919h33.917v33.919zm16.96 9.54h33.917v33.919h-33.92zm26.499-9.54v-33.919h33.917v33.919zm16.96 9.54h33.919v33.919h-33.922zm26.499-9.54v-33.919h33.919v33.919zm16.96 9.54h33.919v33.919h-33.922zm0-86.918h33.919v33.919h-33.922zm-43.459 0h33.919v33.919h-33.922zm-43.459 0h33.917v33.919h-33.92zm-43.459 0h33.919v33.919h-33.922zm-43.459 0h33.919v33.919h-33.922zm-43.459 0h33.916v33.919h-33.919zm-16.96 43.459h33.919v33.919h-33.922zm33.919 120.84h-33.922v-33.92h33.919zm257.57 0h-248.04v-33.92h248.03zm43.459 0h-33.922v-33.92h33.919zm3.18-86.918h-33.922v-33.92h33.919z" fill="#fff"/>
 </g>
</svg>
