<?xml version="1.0" encoding="UTF-8"?>
<svg data-name="Ebene 1" viewBox="0 0 800 800" xmlns="http://www.w3.org/2000/svg">
 <defs>
  <clipPath id="d">
   <circle cx="400" cy="400" r="400" fill="none"/>
  </clipPath>
  <linearGradient id="c" x1="398.76" x2="158.51" y1="409.76" y2="650.01" gradientUnits="userSpaceOnUse">
   <stop offset="0"/>
   <stop stop-opacity="0" offset="1"/>
  </linearGradient>
 </defs>
 <g clip-path="url(#d)">
  <circle cx="400" cy="400" r="400" fill="#1c8adb"/>
  <path d="m234.04 778.54 300.02-300.02a34.015 34.015 0 0 0 6.7593 -10.46c0.03-0.0372 0.06-0.0782 0.09-0.1187l53.633-53.633c5.0063-3.294 7.1142-49.8 0.3734-65.103-0.4912-1.1152-1.4095-1.5432-2.2139-1.0552l-5.6357 5.9156a55.728 55.728 0 0 0 -3.5942 -13.42c-0.6371-1.4133-1.8284-1.9557-2.8719-1.3373l-7.5433 7.6522c-1.5063-9.1771-3.7167-17.158-6.75-22.775-1.0729-1.9866-3.0785-2.749-4.8356-1.88l-12.717 12.717-0.0347 0.0172c-3.6283-20.266-9.6212-38.467-18.441-51.188a9.75 9.75 0 0 0 -11.52 -3.4883l-125.84 57.843-125.81 1.6286a24.664 24.664 0 0 0 -7.9038 5.4409l-227.96 227.96c38.923 80.96 109.46 148.11 202.8 205.3z" fill="url(#c)" opacity=".42"/>
  <path d="m561.46 322.31l-0.1616 0.08a4.4184 4.4184 0 0 1 1.72 1.8c14.565 26.97 10.216 108.35-0.4654 115.77l1.6911 0.545c11.805 0 17.318-88.046 2.0515-116.31-1.0729-1.9869-3.0785-2.7493-4.8356-1.88z" fill="#fff"/>
  <path d="m580.59 339.31l-0.0959 0.0569a2.9665 2.9665 0 0 1 1.0215 1.28c8.6506 19.187 6.0677 77.081-0.2764 82.361l1.0043 0.3877c7.0114 0 10.286-62.638 1.2184-82.749-0.6371-1.413-1.8283-1.9558-2.8719-1.3369z" fill="#fff"/>
  <path d="m594.91 349.21c-0.4912-1.1152-1.4095-1.5432-2.2139-1.0552l-0.074 0.0449a2.33 2.33 0 0 1 0.7875 1.01c6.6686 15.14 4.6775 60.822-0.2131 64.988l0.7743 0.306c5.4048 3e-4 7.9289-49.425 0.9392-65.294z" fill="#fff"/>
  <path d="m518.75 280.36-125.84 57.842l-125.81 1.6286c-29.723 12.622-24.022 82.653 0 94.868l47.589-0.7626 1.0236 78.094c1.9627 11.348 32.819 10.686 33.89-0.018l4.1012-78.702 40.43-0.6479 132.8 49.186c28.125 0 39.705-145.54 3.3333-198a9.75 9.75 0 0 0 -11.521 -3.4882z" fill="#fff"/>
 </g>
</svg>
