<?xml version='1.0' encoding='utf-8'?>
<svg xmlns:xlink="http://www.w3.org/1999/xlink" xmlns="http://www.w3.org/2000/svg" width="1920" height="1080" viewBox="0 0 508 285.75001" version="1.1" id="svg2633"> <defs id="defs2627"> <clipPath clipPathUnits="userSpaceOnUse" id="clipPath62-5"> <path d="M 0,265.901 H 266.987 V 0 H 0 Z" id="path60-2"/> </clipPath> <linearGradient y2="214.96458" x1="112.42918" x2="112.42918" y1="15.200426" id="a-9" gradientTransform="scale(0.99618268,1.0038319)" gradientUnits="userSpaceOnUse"> <stop id="stop2271-4" offset="0" stop-color="#00C6FF"/> <stop id="stop2273-8" offset="1" stop-color="#0068FF"/> </linearGradient> <linearGradient gradientTransform="translate(5783.6681,484.26273)" xlink:href="#linearGradient2405" id="linearGradient2407" x1="-5921.0835" y1="-568.60431" x2="-7038.9385" y2="-568.60431" gradientUnits="userSpaceOnUse"/> <linearGradient id="linearGradient2405"> <stop style="stop-color:#8595bb;stop-opacity:1" offset="0" id="stop2401"/> <stop style="stop-color:#4cbd38;stop-opacity:1" offset="1" id="stop2403"/> </linearGradient> <clipPath clipPathUnits="userSpaceOnUse" id="clipPath62-5-3"> <path d="M 0,265.901 H 266.987 V 0 H 0 Z" id="path60-2-8"/> </clipPath> <linearGradient gradientTransform="translate(7092.4408,2305.5075)" xlink:href="#linearGradient2299" id="linearGradient2301" x1="-7386.8706" y1="-1535.7408" x2="-7386.8706" y2="-525.09045" gradientUnits="userSpaceOnUse"/> <linearGradient id="linearGradient2299"> <stop style="stop-color:#00c6ff;stop-opacity:1" offset="0" id="stop2295"/> <stop style="stop-color:#006eff;stop-opacity:1" offset="1" id="stop2297"/> </linearGradient> <linearGradient gradientTransform="translate(4220.6297,-948.79868)" xlink:href="#linearGradient1694" id="linearGradient1696" x1="-5869.75" y1="543.86011" x2="-5869.75" y2="-46.764301" gradientUnits="userSpaceOnUse"/> <linearGradient id="linearGradient1694"> <stop style="stop-color:#feda75;stop-opacity:1;" offset="0" id="stop1690"/> <stop style="stop-color:#d62976;stop-opacity:1" offset="1" id="stop1692"/> </linearGradient> </defs> <metadata id="metadata2630"> </metadata> <g id="layer1" transform="translate(0,-11.249939)"> <g transform="matrix(0.04889155,0,0,0.04889155,314.49462,145.83984)" style="display:inline" id="g2532"> <g transform="translate(96.929306,1.1025e-4)" id="g2483"> <rect style="opacity:1;fill:#0078d7;fill-opacity:1;stroke:none;stroke-width:0.2106555;stroke-opacity:1" id="rect1634" width="876.97821" height="876.97809" x="-1884.918" y="-2586.5093" ry="93.097458"/> <g id="g1621" transform="matrix(0.33208882,0,0,0.33208882,-1460.6886,-966.79213)" style="fill:#fbfdfe;fill-opacity:1"> <path id="path1584" d="m -567.79264,-4333.9312 c -68.66221,-92.7542 -203.57743,-107.2094 -291.51325,-27.7058 -75.88981,69.8669 -81.91281,187.9177 -20.4782,271.0351 l 396.31346,531.2287 -398.72266,536.0471 c -61.43461,83.1174 -56.61621,201.1682 20.4782,271.035 87.93581,79.5036 222.85104,65.0484 291.51325,-27.7058 l 556.525291,-748.0567 c 13.2506022,-18.069 13.2506022,-43.3656 0,-61.4346 z" class="st0" style="fill:#fbfdfe;fill-opacity:1;stroke-width:12.04600239"/> <path id="path1586" d="m 653.67196,-4333.9312 c 68.66221,-92.7542 203.57744,-107.2094 291.51325,-27.7058 75.88979,69.8669 81.91279,187.9177 20.4782,271.0351 l -396.31346,531.2287 398.72266,536.0471 c 61.43459,83.1174 56.61619,201.1682 -20.4782,271.035 -87.93581,79.5036 -222.85104,65.0484 -291.51325,-27.7058 l -555.32069,-749.2613 c -13.250602,-18.069 -13.250602,-43.3656 0,-61.4346 z" class="st0" style="fill:#fbfdfe;fill-opacity:1;stroke-width:12.04600239"/> </g> </g> <g transform="translate(-995.19199,-38.191296)" id="g1154"> <rect ry="93.097458" y="-2548.3179" x="332.08279" height="876.97809" width="876.97821" id="rect340" style="opacity:1;fill:#6441a4;fill-opacity:1;stroke:none;stroke-width:0.2106555;stroke-opacity:1"/> <path id="path331" d="m 522.61373,-2411.8872 -40.57499,103.6915 v 423.7839 h 144.26662 v 76.6413 h 81.14993 l 76.64151,-76.6413 h 117.21664 l 157.79166,-157.7914 v -369.684 z m 482.39137,342.6343 -90.16669,90.1653 H 770.57178 l -76.64147,76.6414 v -76.6414 H 572.20539 v -378.6998 h 432.79971 z m -90.16669,-184.843 v 157.7928 h -54.09994 v -157.7928 z m -144.26663,0 v 157.7928 h -54.09991 v -157.7928 z" class="cls-1" style="fill:#ffffff;fill-opacity:1;fill-rule:evenodd;stroke-width:4.50832987"/> </g> <g style="stroke:none" transform="translate(-514.42413,345.45446)" id="g1216"> <rect ry="93.097458" y="-2931.9636" x="-2398.4441" height="876.97809" width="876.97821" id="rect1162" style="opacity:1;fill:#0078d7;fill-opacity:1;stroke:none;stroke-width:0.2106555;stroke-opacity:1"/> <rect style="opacity:1;fill:#dd3425;fill-opacity:1;stroke:none;stroke-width:0.2106555;stroke-opacity:1" id="rect1164" width="876.97821" height="876.97809" x="-2398.4441" y="-2931.9636" ry="93.097458"/> <g style="stroke:none" id="g1209" transform="translate(2749.6282,-12.349671)"> <path style="display:inline;opacity:1;fill:#ffffff;fill-opacity:1;stroke:none;stroke-width:1.45277321" d="m -4951.1699,-2711.9001 c 0,0 167.3621,-6.4799 251.0874,-6.6716 81.4905,-0.1855 244.4133,5.3746 244.4133,5.3746 82.5607,6.3727 83.6594,136.7316 85.4609,211.82 3.4004,113.0083 -4.513,247.5313 -85.7727,251.1209 0,0 -169.2336,6.4289 -253.8927,6.5799 -81.896,0.1443 -245.6273,-5.491 -245.6273,-5.491 -52.2117,0.1133 -76.4333,-50.3165 -76.9579,-77.4934 0,0 -16.5514,-92.1649 -17.1291,-138.7686 10.5873,-164.1868 7.1462,-244.5055 98.4181,-246.4708 z" id="rect1470-7"/> <path style="display:inline;fill:#dd3425;fill-opacity:1;stroke:none;stroke-width:1.36339653px;stroke-linecap:butt;stroke-linejoin:miter;stroke-opacity:1" d="m -4777.0121,-2607.6391 0.7147,252.4422 191.1942,-125.6883 z" id="path1468-0"/> </g> </g> </g> <g transform="matrix(0.04889155,0,0,0.04889155,314.49462,142.19721)" style="display:inline" id="g2549"> <g transform="translate(1874.0048,-614.30066)" id="g1325"> <rect ry="93.097458" y="-749.15125" x="-4786.873" height="876.97809" width="876.97821" id="rect1156" style="opacity:1;fill:#2aa9e0;fill-opacity:1;stroke:none;stroke-width:0.2106555;stroke-opacity:1"/> <path style="fill:#ffffff;fill-opacity:1;stroke:none;stroke-width:0.60756785px;stroke-linecap:butt;stroke-linejoin:miter;stroke-opacity:1" d="m -4005.9445,-594.81087 c 0,0 -25.1855,14.06567 -38.5811,19.28971 -19.0137,7.41521 -58.8403,16.92367 -58.8403,16.92367 0,0 -57.6812,-75.72657 -168.824,-33.27697 -112.0922,53.84155 -82.2285,168.3599 -82.2285,168.3599 0,0 -68.0078,0.25901 -134.5233,-28.43132 -31.3163,-13.50767 -80.2465,-38.90591 -115.0636,-66.22023 -22.1912,-17.40918 -58.4503,-61.18242 -58.4503,-61.18242 0,0 -54.6774,90.71151 16.238,173.20083 11.4184,13.2821 30.3348,26.61666 30.3348,26.61666 0,0 -23.4971,-2.10488 -34.8259,-5.16988 -11.4878,-3.10813 -33.142,-13.27899 -33.142,-13.27899 0,0 -7.2207,80.04024 74.9908,131.18095 16.6365,10.34905 43.4936,16.9766 43.4936,16.9766 0,0 -20.3301,4.72797 -30.6969,5.16804 -11.759,0.49914 -35.1907,-2.89028 -35.1907,-2.89028 0,0 15.802,49.37606 57.3637,77.742 35.7146,24.37523 81.9899,25.93132 81.9899,25.93132 0,0 -65.3185,52.509265 -153.7784,62.359259 -22.6739,2.52472 -66.5426,-0.642769 -66.5426,-0.642769 0,0 41.6786,27.819173 85.8584,41.878522 15.0103,4.776745 72.4368,20.4431 90.5684,21.977501 38.3873,3.248559 91.1495,1.885212 125.1248,-2.914807 76.2979,-10.779333 128.0124,-41.795185 158.7752,-60.002421 42.4247,-25.109305 116.1009,-94.859555 150.3835,-174.457095 15.4306,-35.82665 28.4424,-79.67385 35.8797,-121.11904 4.8357,-26.9447 5.509,-81.9404 5.509,-81.9404 0,0 24.3819,-18.99263 35.1932,-29.97199 14.837,-15.06768 40.3825,-48.92658 40.3825,-48.92658 0,0 -28.7008,13.45099 -43.8795,17.76344 -14.7673,4.19552 -45.3996,7.74499 -45.3996,7.74499 0,0 16.8673,-9.70155 24.1382,-16.07134 10.3262,-9.04619 19.6381,-19.48057 27.135,-30.98063 7.1572,-10.97854 16.608,-35.63623 16.608,-35.63623 z" id="path1193"/> </g> <g transform="translate(306.23521,-90.076447)" id="g1746"> <rect ry="93.097458" y="-1273.3755" x="-2094.2239" height="876.97815" width="876.97821" id="rect1662" style="display:inline;opacity:1;fill:url(#linearGradient1696);fill-opacity:1;stroke:none;stroke-width:0.21065551;stroke-opacity:1"/> <g id="g10" transform="matrix(1.2072113,0,0,-1.2072113,-1959.8559,-530.76516)" style="display:inline;fill:#ffffff;fill-opacity:1"> <g id="g12" transform="scale(0.1)" style="fill:#ffffff;fill-opacity:1"> <path d="m 2519.21,5038.41 c -684.18,0 -769.97,-2.9 -1038.67,-15.16 C 1212.4,5011.02 1029.27,4968.43 869.027,4906.16 703.367,4841.78 562.879,4755.64 422.824,4615.59 282.773,4475.54 196.633,4335.04 132.254,4169.38 69.9805,4009.14 27.3945,3826.01 15.1563,3557.87 2.89844,3289.17 0,3203.38 0,2519.2 0,1835.03 2.89844,1749.24 15.1563,1480.54 27.3945,1212.4 69.9805,1029.27 132.254,869.031 196.633,703.371 282.773,562.879 422.824,422.82 562.879,282.77 703.367,196.629 869.027,132.25 1029.27,69.9805 1212.4,27.3906 1480.54,15.1602 1749.24,2.90234 1835.03,0 2519.21,0 c 684.17,0 769.96,2.90234 1038.66,15.1602 268.14,12.2304 451.27,54.8203 611.51,117.0898 165.66,64.379 306.15,150.52 446.21,290.57 140.05,140.059 226.19,280.551 290.57,446.211 62.27,160.239 104.86,343.369 117.09,611.509 12.26,268.7 15.16,354.49 15.16,1038.66 0,684.18 -2.9,769.97 -15.16,1038.67 -12.23,268.14 -54.82,451.27 -117.09,611.51 -64.38,165.66 -150.52,306.16 -290.57,446.21 -140.06,140.05 -280.55,226.19 -446.21,290.57 -160.24,62.27 -343.37,104.86 -611.51,117.09 -268.7,12.26 -354.49,15.16 -1038.66,15.16 z m 0,-453.91 c 672.65,0 752.33,-2.57 1017.97,-14.69 245.62,-11.2 379.01,-52.24 467.78,-86.74 117.59,-45.7 201.51,-100.29 289.66,-188.44 88.16,-88.16 142.75,-172.08 188.45,-289.67 34.5,-88.77 75.54,-222.16 86.74,-467.78 12.12,-265.64 14.69,-345.32 14.69,-1017.98 0,-672.65 -2.57,-752.33 -14.69,-1017.97 -11.2,-245.62 -52.24,-379.01 -86.74,-467.78 -45.7,-117.591 -100.29,-201.509 -188.45,-289.661 -88.15,-88.16 -172.07,-142.75 -289.66,-188.449 -88.77,-34.5 -222.16,-75.539 -467.78,-86.738 -265.6,-12.122 -345.27,-14.692 -1017.97,-14.692 -672.71,0 -752.37,2.57 -1017.98,14.692 -245.62,11.199 -379.01,52.238 -467.78,86.738 -117.591,45.699 -201.509,100.289 -289.661,188.449 -88.152,88.152 -142.75,172.07 -188.449,289.661 -34.5,88.77 -75.535,222.16 -86.742,467.78 -12.121,265.64 -14.688,345.32 -14.688,1017.97 0,672.66 2.567,752.34 14.688,1017.98 11.207,245.62 52.242,379.01 86.742,467.78 45.699,117.59 100.293,201.51 188.445,289.66 88.156,88.16 172.074,142.75 289.665,188.45 88.77,34.5 222.16,75.54 467.78,86.74 265.64,12.12 345.32,14.69 1017.98,14.69" style="fill:#ffffff;fill-opacity:1;fill-rule:nonzero;stroke:none" id="path14"/> <path d="m 2519.21,1679.47 c -463.78,0 -839.74,375.96 -839.74,839.73 0,463.78 375.96,839.74 839.74,839.74 463.77,0 839.73,-375.96 839.73,-839.74 0,-463.77 -375.96,-839.73 -839.73,-839.73 z m 0,2133.38 c -714.47,0 -1293.65,-579.18 -1293.65,-1293.65 0,-714.46 579.18,-1293.64 1293.65,-1293.64 714.46,0 1293.64,579.18 1293.64,1293.64 0,714.47 -579.18,1293.65 -1293.64,1293.65" style="fill:#ffffff;fill-opacity:1;fill-rule:nonzero;stroke:none" id="path16-2"/> <path d="m 4166.27,3863.96 c 0,-166.96 -135.35,-302.3 -302.31,-302.3 -166.95,0 -302.3,135.34 -302.3,302.3 0,166.96 135.35,302.31 302.3,302.31 166.96,0 302.31,-135.35 302.31,-302.31" style="fill:#ffffff;fill-opacity:1;fill-rule:nonzero;stroke:none" id="path18"/> </g> </g> </g> <g transform="translate(90.418206)" id="g2477"> <rect ry="93.097458" y="-1363.4519" x="-753.5274" height="876.97809" width="876.97821" id="rect1658" style="opacity:1;fill:#3c5a99;fill-opacity:1;stroke:none;stroke-width:0.2106555;stroke-opacity:1"/> <g id="g1759" transform="matrix(2.3904182,0,0,2.3904182,-634.03121,-1243.9581)" style="stroke:#ffffff;stroke-width:2.50042677;stroke-linecap:round;stroke-linejoin:round;stroke-miterlimit:4;stroke-dasharray:none;stroke-opacity:1;paint-order:normal"> <path d="m 248.082,262.307 c 7.854,0 14.223,-6.369 14.223,-14.225 V 18.812 c 0,-7.857 -6.368,-14.224 -14.223,-14.224 H 18.812 c -7.857,0 -14.224,6.367 -14.224,14.224 v 229.27 c 0,7.855 6.366,14.225 14.224,14.225 z" id="Blue_1_" style="fill:#3c5a99;stroke:#ffffff;stroke-width:2.50042677;stroke-linecap:round;stroke-linejoin:round;stroke-miterlimit:4;stroke-dasharray:none;stroke-opacity:1;paint-order:normal"/> <path d="m 182.409,262.307 v -99.803 h 33.499 l 5.016,-38.895 H 182.409 V 98.777 c 0,-11.261 3.127,-18.935 19.275,-18.935 L 222.28,79.833 V 45.045 c -3.562,-0.474 -15.788,-1.533 -30.012,-1.533 -29.695,0 -50.025,18.126 -50.025,51.413 v 28.684 h -33.585 v 38.895 h 33.585 v 99.803 z" id="f" style="fill:#ffffff;stroke:#ffffff;stroke-width:2.50042677;stroke-linecap:round;stroke-linejoin:round;stroke-miterlimit:4;stroke-dasharray:none;stroke-opacity:1;paint-order:normal"/> </g> </g> </g> <g transform="matrix(0.04889155,0,0,0.04889155,314.49462,145.83984)" style="display:inline" id="g2625"> <g transform="translate(-2156.354,3396.4695)" id="g1791"> <rect ry="93.097458" y="-1388.7678" x="-756.51422" height="876.97815" width="876.97821" id="rect1170" style="display:inline;opacity:1;fill:#1dd661;fill-opacity:1;stroke:none;stroke-width:0.21065551;stroke-opacity:1"/> <g style="display:inline" id="g1958" transform="matrix(0.75273223,0,0,0.75273223,-1623.9831,-2010.9755)"> <ellipse ry="469.23105" rx="469.18518" cy="1409.129" cx="1734.957" id="path1946" style="opacity:1;fill:#1dd661;fill-opacity:1;fill-rule:evenodd;stroke:#ffffff;stroke-width:33.8314209;stroke-linecap:round;stroke-linejoin:round;stroke-miterlimit:4;stroke-dasharray:none;stroke-opacity:1"/> <path id="path1948" d="m 1493.6296,1582.288 c 0,0 117.6895,-29.8667 214.4977,-18.3725 30.8047,3.6575 60.6971,7.1166 89.9708,15.415 38.7678,10.9894 86.1714,30.2941 114.204,49.0731 0,0 25.927,10.7077 39.0222,-12.6191 10.4588,-18.6303 -1.0612,-31.0251 -10.0424,-38.6457 -8.4369,-6.804 -38.8603,-22.2814 -77.97,-37.9323 -39.6192,-15.855 -77.803,-25.9291 -111.5275,-30.7288 -38.2009,-5.4368 -95.6458,-6.1973 -143.3412,-3.1587 -41.7309,2.6589 -124.0513,18.6574 -124.0513,18.6574 0,0 -27.6853,10.9567 -21.5999,34.16 6.3692,24.2854 30.8376,24.1516 30.8376,24.1516 z" style="fill:#ffffff;fill-opacity:1;stroke:none;stroke-width:0.69673461px;stroke-linecap:butt;stroke-linejoin:miter;stroke-opacity:1"/> <path style="fill:#ffffff;fill-opacity:1;stroke:none;stroke-width:0.8123244px;stroke-linecap:butt;stroke-linejoin:miter;stroke-opacity:1" d="m 1481.5036,1448.7375 c 0,0 114.3175,-39.7185 225.1943,-23.4459 35.2816,5.1782 90.7487,8.463 124.1643,19.0914 44.2523,14.0746 98.9952,36.6878 130.7403,59.6849 0,0 31.8258,10.3071 47.4057,-16.9368 12.4438,-21.7592 -0.879,-38.2841 -11.0113,-47.5505 -9.5268,-8.2842 -44.4727,-27.6302 -90.1696,-44.3466 -41.6524,-15.2367 -89.8744,-29.3663 -128.4814,-35.977 -43.7317,-7.4876 -109.7105,-11.0979 -164.4969,-7.6925 -50.3442,3.1295 -149.1195,25.7342 -149.1195,25.7342 0,0 -27.6876,12.7469 -21.2428,40.3734 6.7442,28.9158 37.0169,31.0654 37.0169,31.0654 z" id="path1950"/> <path id="path1952" d="m 1456.6432,1305.1455 c 0,0 126.7649,-37.8272 250.8234,-28.8344 39.4762,2.8619 109.863,10.2437 147.717,19.2902 50.1296,11.9795 129.787,42.064 166.7982,64.9384 0,0 38.7897,8.2757 53.8194,-23.1491 12.0043,-25.099 -4.0874,-47.2058 -16.0572,-56.6392 -11.2199,-8.3948 -79.7541,-42.3676 -131.698,-57.154 -47.3467,-13.4776 -106.1092,-23.6559 -143.6096,-28.6024 -48.8227,-6.4401 -137.3267,-9.496 -205.5107,-2.8198 -49.7301,4.8693 -137.3905,22.111 -146.644,31.0923 0,0 -28.5231,20.4449 -19.1414,50.5017 9.8176,31.4598 43.5029,31.3763 43.5029,31.3763 z" style="fill:#ffffff;fill-opacity:1;stroke:none;stroke-width:0.90162462px;stroke-linecap:butt;stroke-linejoin:miter;stroke-opacity:1"/> </g> </g> <g transform="translate(203.33641,-245.54413)" id="g1893"> <rect ry="93.097458" y="2253.2458" x="-1991.3251" height="876.97815" width="876.97821" id="rect1660" style="display:inline;opacity:1;fill:#ce0000;fill-opacity:1;stroke:none;stroke-width:0.21065551;stroke-opacity:1"/> <g transform="matrix(3.6073691,0,0,3.6073691,-3372.8428,1079.7924)" style="display:inline" id="g1835"> <path style="fill:none;stroke:#ffffff;stroke-width:18;stroke-linecap:butt;stroke-linejoin:miter;stroke-miterlimit:4;stroke-dasharray:none;stroke-opacity:1" d="m 499.87835,485.40493 c -8.2629,9.60152 -19.95678,13.48473 -33.92857,13.57143 -34.31711,1.15534 -50.27142,-29.51483 -51.07143,-52.85714 0.23421,-22.76547 19.14858,-50.79762 50,-51.42858 22.05846,0.63597 37.72221,7.33677 50.35714,40.35715 5.28078,13.81626 8.89926,24.51172 14.64286,36.78571 9.76191,20.20361 22.02381,26.66539 33.57143,27.14286 12.35432,0.0658 31.21727,-7.92258 30.71428,-29.64286 -0.64462,-17.09347 -18.79462,-23.46728 -28.92857,-26.42857 -12.00931,-3.04122 -23.0559,-7.16626 -26.07143,-25.35715 -0.99836,-9.20703 6.48725,-22.70043 22.14286,-22.85714 6.73828,0.23233 11.91867,0.074 17.14286,5" id="path26100"/> <path style="fill:#ffffff;fill-opacity:1;stroke:none" d="m 583.75373,392.39028 c 2.93584,2.39626 4.1771,4.94536 8.33376,10.48034 l -14.26841,10.85914 c -1.57111,-2.78358 -2.6957,-5.2524 -5.93464,-7.70242 z" id="path26102"/> <path style="fill:#ffffff;fill-opacity:1;stroke:none" d="m 505.8605,492.19064 c 2.32011,-2.80539 4.25644,-5.70672 5.62499,-8.75 l -9.28571,-16.69643 c -2.58175,4.93905 -6.05652,9.34228 -9.82143,13.57143 z" id="path26104"/> </g> </g> <g transform="translate(159.02575,1950.7533)" id="g2269"> <rect ry="93.097458" y="56.948421" x="-822.13495" height="876.97815" width="876.97821" id="rect1166" style="display:inline;opacity:1;fill:#f04b23;fill-opacity:1;stroke:none;stroke-width:0.21065551;stroke-opacity:1"/> <g id="g2068" transform="matrix(2.9576091,0,0,2.9576091,-760.89389,331.77139)" style="display:inline;fill:#ffffff;fill-opacity:1"> <path id="path2036" d="m 109.97043,81.481712 -1.49417,-54.48716 c 0,-1.693385 -1.39455,-2.988326 -2.98832,-2.988326 -1.69339,0 -2.98833,1.294941 -2.98833,2.988326 l -1.39455,54.48716 1.39455,26.197668 c 0,1.69338 1.39455,2.98832 2.98833,2.98832 1.69338,0 2.98832,-1.29494 2.98832,-2.98832 v 0 z" style="fill:#ffffff;fill-opacity:1"/> <path id="path2038" d="M 99.212451,81.481712 97.519066,24.902724 c 0,-1.593775 -1.294941,-2.789105 -2.789105,-2.789105 -1.494163,0 -2.789105,1.19533 -2.789105,2.789105 l -1.494163,56.479377 1.494163,26.396889 c 0,1.59377 1.294942,2.7891 2.789105,2.7891 1.494164,0 2.789105,-1.19533 2.789105,-2.7891 v 0 z" style="fill:#ffffff;fill-opacity:1"/> <circle id="circle2040" r="0" cy="107.43054" cx="119.38385" style="fill:#ffffff;fill-opacity:1"/> <path id="path2042" d="m 76.003113,25.301167 c -0.09961,-1.294941 -1.09572,-2.390661 -2.390662,-2.390661 -1.294941,0 -2.29105,0.996109 -2.390661,2.390661 l -1.693385,56.080934 1.693385,26.795329 c 0,1.29494 1.09572,2.29105 2.390661,2.29105 1.294942,0 2.291051,-0.99611 2.390662,-2.39066 l 1.992218,-26.79533 z" style="fill:#ffffff;fill-opacity:1"/> <path id="path2044" d="m 86.761089,23.40856 c 0,-1.394552 -1.19533,-2.589883 -2.589883,-2.589883 -1.394552,0 -2.589883,1.09572 -2.589883,2.589883 l -1.593774,57.973541 1.593774,26.596109 c 0,1.39455 1.195331,2.58988 2.589883,2.58988 1.394553,0 2.490273,-1.09572 2.589883,-2.58988 l 1.792997,-26.596109 z" style="fill:#ffffff;fill-opacity:1"/> <path id="path2046" d="m 32.473152,109.87082 c 0.796887,0 1.394552,-0.59767 1.494163,-1.49417 l 2.589883,-26.994549 -2.589883,-27.89105 c -0.09961,-0.796888 -0.697276,-1.494164 -1.494163,-1.494164 -0.796887,0 -1.394553,0.597665 -1.494164,1.494164 l -2.29105,27.89105 2.29105,26.994549 c 0,0.8965 0.697277,1.49417 1.494164,1.49417 z" style="fill:#ffffff;fill-opacity:1"/> <path id="path2048" d="M 120.82802,81.481712 119.43346,16.73463 c 0,-1.095719 -0.59766,-2.091828 -1.49416,-2.689494 -0.49806,-0.298832 -1.09572,-0.597665 -1.793,-0.597665 -0.59766,0 -1.19533,0.199222 -1.79299,0.498054 -0.8965,0.597666 -1.49417,1.593775 -1.49417,2.689494 v 0.597666 l -1.19533,64.149416 1.19533,25.998439 v 0.0996 c 0,0.69727 0.29884,1.39455 0.79689,1.8926 0.59767,0.69728 1.49416,1.19533 2.49027,1.19533 0.8965,0 1.69339,-0.39844 2.29105,-0.8965 0.59767,-0.59766 0.99611,-1.39455 0.99611,-2.29105 l 0.0996,-2.58988 1.29495,-23.308948 z" style="fill:#ffffff;fill-opacity:1"/> <path id="path2050" d="m 44.326848,55.483268 c -0.09961,-0.996109 -0.796887,-1.693385 -1.693385,-1.693385 -0.896498,0 -1.693385,0.697276 -1.693385,1.693385 l -2.091829,25.898833 2.091829,27.193769 c 0.09961,0.99611 0.796887,1.69339 1.693385,1.69339 0.896498,0 1.693385,-0.69728 1.693385,-1.69339 L 46.71751,81.382101 Z" style="fill:#ffffff;fill-opacity:1"/> <path id="path2052" d="m 52.893385,37.354086 c -0.996109,0 -1.892607,0.796887 -1.892607,1.892607 l -1.992218,42.135408 1.992218,27.193769 c 0.09961,1.09572 0.896498,1.89261 1.892607,1.89261 0.996109,0 1.892607,-0.79689 1.892607,-1.89261 v 0 L 57.077043,81.382101 54.785992,39.246693 c 0,-0.996109 -0.896498,-1.892607 -1.892607,-1.892607 z" style="fill:#ffffff;fill-opacity:1"/> <path id="path2054" d="m 65.245136,108.57587 v 0 L 67.336965,81.481712 65.245136,29.684047 c -0.09961,-1.195331 -0.996109,-2.091829 -2.19144,-2.091829 -1.19533,0 -2.091828,0.896498 -2.191439,2.091829 l -1.892607,51.797665 1.892607,27.094158 c 0,1.19534 0.996109,2.09183 2.191439,2.09183 1.195331,0.0996 2.091829,-0.89649 2.19144,-2.09183 z" style="fill:#ffffff;fill-opacity:1"/> <path id="path2056" d="m 128.69728,7.8692607 c -0.49806,-0.2988327 -1.09572,-0.4980545 -1.793,-0.4980545 -0.79689,0 -1.59377,0.2988327 -2.19144,0.7968872 -0.79689,0.5976654 -1.29494,1.5937743 -1.29494,2.6894936 v 0.398444 l -1.39455,70.325292 0.69727,12.949416 0.69728,12.650581 c 0,1.89261 1.59377,3.38677 3.48638,3.38677 1.89261,0 3.38677,-1.59377 3.48638,-3.48638 v 0 l 1.49416,-25.599998 -1.49416,-70.624125 c -0.0996,-1.2949411 -0.69728,-2.3906609 -1.69338,-2.9883263 z" style="fill:#ffffff;fill-opacity:1"/> <path id="path2058" d="m 2.888716,96.323735 c 0.4980544,0 0.896498,-0.398443 0.9961089,-0.996109 L 6.0762646,81.382101 3.8848249,67.237354 C 3.785214,66.639689 3.3867704,66.241245 2.888716,66.241245 c -0.4980545,0 -0.996109,0.398444 -0.996109,0.996109 L 0,81.382101 1.892607,95.327626 c 0,0.597666 0.4980545,0.996109 0.996109,0.996109 z" style="fill:#ffffff;fill-opacity:1"/> <path id="path2060" d="m 12.351751,104.79066 c 0.498054,0 0.996109,-0.39844 1.09572,-0.99611 L 16.336187,81.382101 13.447471,58.471595 c -0.09961,-0.597665 -0.498055,-0.996109 -1.09572,-0.996109 -0.498054,0 -0.996109,0.398444 -1.09572,0.996109 L 8.7657588,81.382101 11.256031,103.79455 c 0.09961,0.59767 0.498055,0.99611 1.09572,0.99611 z" style="fill:#ffffff;fill-opacity:1"/> <path id="path2062" d="m 22.31284,108.87471 c 0.697277,0 1.195331,-0.49806 1.294942,-1.29494 L 26.297276,81.382101 23.607782,54.188327 c -0.09961,-0.697276 -0.597665,-1.294942 -1.294942,-1.294942 -0.697276,0 -1.19533,0.498055 -1.294941,1.294942 l -2.390662,27.193774 2.390662,26.197669 c 0.09961,0.69727 0.597665,1.29494 1.294941,1.29494 z" style="fill:#ffffff;fill-opacity:1"/> <path id="path2064" d="m 223.62646,48.012451 c -4.28327,0 -8.36732,0.896498 -12.15253,2.390662 C 208.98366,22.21323 185.27626,0 156.3891,0 c -7.07237,0 -13.94552,1.3945525 -20.02179,3.785214 -2.39066,0.8964981 -2.98832,1.892607 -2.98832,3.6856031 V 106.9821 c 0,1.89261 1.49416,3.38677 3.38677,3.58599 h 86.96031 c 17.3323,0 31.37743,-13.845911 31.37743,-31.178207 -0.0996,-17.332296 -14.14475,-31.377432 -31.47704,-31.377432 z" style="fill:#ffffff;fill-opacity:1"/> </g> </g> </g> <g transform="matrix(0.04889155,0,0,0.04889155,314.49462,149.07799)" style="display:inline" id="g2592"> <g transform="translate(130.81395,2172.3309)" id="g1360"> <rect ry="93.097458" y="-1379.4133" x="-1918.8026" height="876.97815" width="876.97821" id="rect1160" style="display:inline;opacity:1;fill:#46c756;fill-opacity:1;stroke:none;stroke-width:0.21065551;stroke-opacity:1"/> <g style="display:inline" id="g977" transform="matrix(1.3847035,0,0,1.3847035,-13608.494,-3850.5909)"> <path id="path964" d="m 8759.9735,1860.4892 a 238.28155,238.50042 0 0 0 -238.2814,238.5007 238.28155,238.50042 0 0 0 31.7246,118.3055 l -17.8221,62.7796 -16.4822,62.02 60.8764,-16.4445 66.0382,-17.216 a 238.28155,238.50042 0 0 0 113.9465,29.0556 238.28155,238.50042 0 0 0 238.2816,-238.5002 238.28155,238.50042 0 0 0 -238.2816,-238.5007 z" style="opacity:1;fill:#ffffff;fill-opacity:1;fill-rule:evenodd;stroke:none;stroke-width:0.08008936;stroke-miterlimit:4;stroke-dasharray:none;stroke-opacity:1"/> <path style="opacity:1;fill:#46c756;fill-opacity:1;fill-rule:evenodd;stroke:none;stroke-width:0.06482898;stroke-miterlimit:4;stroke-dasharray:none;stroke-opacity:1" d="m 8758.1065,1904.5845 c -108.4434,0 -196.3541,84.9045 -196.354,189.6395 0.086,33.0195 9.0973,65.4451 26.1423,94.0684 l 9.5771,23.9012 -21.1826,72.4078 c 0,0 33.4543,-8.6745 50.1648,-13.0756 13.8613,-3.6507 37.7556,-10.7656 37.7556,-10.7656 28.8092,15.1557 61.091,23.0985 93.8968,23.1029 108.4433,0 196.354,-84.9043 196.3541,-189.6391 10e-5,-104.735 -87.9107,-189.6395 -196.3541,-189.6395 z" id="path974"/> <path id="path976" d="m 8694.2861,1991.8831 c 10.724,11.1054 26.3843,58.1961 26.3843,58.1961 0,0 -1.6648,5.6161 -3.7394,8.9356 -2.2987,3.6781 -4.686,5.8697 -8.1949,10.7697 -3.7358,5.2168 -8.8345,6.9659 -8.8206,12.1583 0.013,4.9107 6.3894,12.0961 10.3241,17.6679 5.7538,8.1479 13.4441,17.5448 19.2979,22.87 17.6437,16.0506 46.872,37.2971 61.2912,36.9285 4.3683,-0.1117 16.6009,-20.8532 26.6286,-30.3807 1.3358,-1.2692 5.2351,-1.7752 5.2351,-1.7752 l 57.5882,28.3556 c 0,0 0.4532,25.0808 -7.0465,33.8186 -23.6875,27.5974 -45.2799,24.939 -45.2799,24.939 0,0 -78.2438,-4.733 -127.56,-59.3544 -26.6717,-29.541 -42.9855,-53.006 -51.6177,-70.4306 -8.8173,-17.7982 -9.6649,-29.2404 -9.6649,-29.2404 0,0 -3.1782,-8.0245 2.2667,-28.9023 5.4449,-20.8778 22.958,-34.5368 26.6852,-35.56 0,0 20.4202,-5.0044 26.2226,1.0043 z" style="fill:#ffffff;fill-opacity:1;stroke:none;stroke-width:0.26458332px;stroke-linecap:butt;stroke-linejoin:miter;stroke-opacity:1"/> </g> </g> <g transform="translate(-1277.0117,1626.6346)" id="g1604"> <rect style="display:inline;opacity:1;fill:#2298d5;fill-opacity:1;stroke:none;stroke-width:0.21065551;stroke-opacity:1" id="rect1419" width="876.97821" height="876.97815" x="-1635.8566" y="-833.7171" ry="93.097458"/> <g style="display:inline" id="g56" transform="matrix(4.3066113,0,0,-4.3066113,-1750.5033,167.69437)"> <g clip-path="url(#clipPath62-5-3)" id="g58"> <g transform="translate(96.031,121.9909)" id="g64"> <g id="g1534"> <path transform="translate(-0.25329746,1.3826013)" d="m 0,0 14,-38.75 c 0,0 1.75,-3.625 3.625,-3.625 1.875,0 29.75,29 29.75,29 L 78.375,46.5 0.5,10 Z" style="display:inline;fill:#c8daea;fill-opacity:1;fill-rule:nonzero;stroke:none" id="path42"/> <path transform="translate(18.309203,-8.5549017)" d="m 0,0 -2.688,-28.562 c 0,0 -1.125,-8.751 7.625,0 8.75,8.75 17.125,15.499 17.125,15.499" style="display:inline;fill:#a9c6d8;fill-opacity:1;fill-rule:nonzero;stroke:none" id="path54"/> <path d="m 0,0 -28.795,9.383 c 0,0 -3.437,1.395 -2.333,4.562 0.228,0.653 0.687,1.208 2.062,2.167 6.382,4.447 118.104,44.604 118.104,44.604 0,0 3.155,1.062 5.019,0.356 0.852,-0.323 1.396,-0.688 1.854,-2.021 0.167,-0.485 0.263,-1.516 0.25,-2.542 -0.009,-0.739 -0.1,-1.425 -0.166,-2.5 -0.681,-10.979 -21.04,-92.918 -21.04,-92.918 0,0 -1.218,-4.795 -5.583,-4.958 -1.592,-0.06 -3.524,0.263 -5.834,2.25 -8.565,7.368 -38.172,27.265 -44.713,31.641 -0.369,0.246 -0.474,0.567 -0.537,0.879 -0.092,0.461 0.41,1.034 0.41,1.034 0,0 51.552,45.825 52.924,50.633 0.106,0.373 -0.293,0.557 -0.834,0.396 C 67.364,41.706 8.008,4.225 1.457,0.086 1.074,-0.156 0,0 0,0" style="fill:#ffffff;fill-opacity:1;fill-rule:nonzero;stroke:none" id="path66"/> </g> </g> </g> </g> </g> <g transform="translate(46.65844)" id="g2471"> <rect style="display:inline;opacity:1;fill:url(#linearGradient2301);fill-opacity:1;stroke:none;stroke-width:0.21065551;stroke-opacity:1" id="rect1168" width="876.97821" height="876.97815" x="-709.76764" y="792.91754" ry="93.097458"/> <g id="g2293" transform="matrix(2.5668271,0,0,2.5668271,-558.76299,941.71499)" style="display:inline;stroke:#ffffff;stroke-width:10.62284279;stroke-linecap:round;stroke-linejoin:round;stroke-miterlimit:4;stroke-dasharray:none;stroke-opacity:1;paint-order:markers stroke fill"> <path id="path2278" d="m 41.255,185.52 v 40.2 L 78.844,204.35 C 89.322,207.37 100.46,209 112,209 173.86,209 224,162.21 224,104.5 224,46.786 173.86,0 112,0 50.144,0 0,46.786 0,104.5 c 0,32.68 16.078,61.86 41.255,81.02 z" style="fill:url(#a-9);stroke:#ffffff;stroke-width:10.62284279;stroke-linecap:round;stroke-linejoin:round;stroke-miterlimit:4;stroke-dasharray:none;stroke-opacity:1;paint-order:markers stroke fill"/> <path id="path2280" d="m 100.04,75.878 -60.401,63.952 54.97,-30.16 28.721,30.16 60.06,-63.952 -54.36,29.632 z" style="fill:#ffffff;stroke:#ffffff;stroke-width:10.62284279;stroke-linecap:round;stroke-linejoin:round;stroke-miterlimit:4;stroke-dasharray:none;stroke-opacity:1;paint-order:markers stroke fill"/> </g> </g> </g> <g transform="matrix(0.04889155,0,0,0.04889155,314.49462,145.63481)" style="display:inline" id="g2570"> <g transform="translate(79.381046,136.91185)" id="g1455"> <rect ry="93.097458" y="-422.12207" x="-2992.2493" height="876.97815" width="876.97821" id="rect1158" style="display:inline;opacity:1;fill:#7169ac;fill-opacity:1;stroke:none;stroke-width:0.21065551;stroke-opacity:1"/> <rect style="display:inline;opacity:1;fill:#ffffff;fill-opacity:1;stroke:#ffffff;stroke-width:24.3765564;stroke-linecap:round;stroke-linejoin:round;stroke-miterlimit:4;stroke-dasharray:none;stroke-opacity:1" id="rect1421" width="459.04169" height="360.90176" x="-2783.8015" y="-177.88153"/> <g style="display:inline" id="g1185" transform="matrix(12.78586,0,0,12.78586,10841.202,35245.473)"> <path style="fill:#5f559c;fill-opacity:1;stroke-width:0.26458332" id="path4" d="m -1052.4855,-2756.8051 c -1.5081,0 -2.6988,1.3229 -2.6988,2.9369 0,1.6139 1.2171,2.9369 2.6988,2.9369 1.5081,0 2.6987,-1.323 2.6987,-2.9369 0.027,-1.614 -1.1906,-2.9369 -2.6987,-2.9369 z m 9.6573,0 c -1.5081,0 -2.6988,1.3229 -2.6988,2.9369 0,1.6139 1.2171,2.9369 2.6988,2.9369 1.5081,0 2.6987,-1.323 2.6987,-2.9369 0,-1.614 -1.1906,-2.9369 -2.6987,-2.9369 z" class="st0"/> <path style="fill:#5f559c;fill-opacity:1;stroke-width:0.26458332" id="path6" d="m -1029.9695,-2779.0036 h -35.4541 c -2.9898,0 -5.424,2.4341 -5.424,5.4504 v 35.7717 c 0,3.0162 2.4342,5.4504 5.424,5.4504 h 30.0037 l -1.4023,-4.8948 3.3867,3.1485 3.2015,2.9634 5.6885,5.027 v -47.4662 c 0,-3.0163 -2.4342,-5.4504 -5.424,-5.4504 z m -10.2129,34.5546 c 0,0 -0.9525,-1.1378 -1.7462,-2.1432 3.466,-0.9789 4.7889,-3.1485 4.7889,-3.1485 -1.0848,0.7144 -2.1166,1.2171 -3.0427,1.561 -1.3229,0.5557 -2.5929,0.9261 -3.8364,1.1377 -2.54,0.4763 -4.8684,0.344 -6.8527,-0.026 -1.5082,-0.2911 -2.8046,-0.7144 -3.8894,-1.1377 -0.6086,-0.2382 -1.27,-0.5292 -1.9315,-0.8996 -0.079,-0.053 -0.1587,-0.079 -0.2381,-0.1323 -0.053,-0.027 -0.079,-0.053 -0.1058,-0.079 -0.4763,-0.2646 -0.7409,-0.4498 -0.7409,-0.4498 0,0 1.27,2.1167 4.6302,3.1221 -0.7937,1.0054 -1.7727,2.1961 -1.7727,2.1961 -5.8473,-0.1853 -8.0698,-4.0217 -8.0698,-4.0217 0,-8.5196 3.81,-15.4252 3.81,-15.4252 3.81,-2.8575 7.4348,-2.7781 7.4348,-2.7781 l 0.2646,0.3175 c -4.7625,1.3758 -6.9585,3.466 -6.9585,3.466 0,0 0.5821,-0.3175 1.561,-0.7673 2.8311,-1.2435 5.08,-1.5875 6.0061,-1.6669 0.1587,-0.026 0.291,-0.053 0.4497,-0.053 1.614,-0.2117 3.4396,-0.2646 5.3446,-0.053 2.5136,0.291 5.2123,1.0319 7.964,2.54 0,0 -2.0902,-1.9844 -6.5881,-3.3602 l 0.3704,-0.4234 c 0,0 3.6248,-0.079 7.4348,2.7782 0,0 3.81,6.9056 3.81,15.4252 0,0 -2.249,3.8364 -8.0963,4.0216 z" class="st0"/> </g> </g> <g transform="translate(-1209.1831,-265.32878)" id="g1656"> <rect style="display:inline;opacity:1;fill:#00aff0;fill-opacity:1;stroke:none;stroke-width:0.21065551;stroke-opacity:1" id="rect1172" width="876.97821" height="876.97815" x="-578.8056" y="-19.881443" ry="93.097458"/> <g style="display:inline" id="g1618" transform="matrix(2.7469849,0,0,2.7469849,-491.93046,66.993513)"> <path style="fill:none" id="path4-1" d="M 0,0 H 256 V 256 H 0 Z"/> <path id="path6-3" d="M 38,21.99 C 58.33,7.32 87.08,6.06 108.73,18.61 c 24.41,-4.23 50.22,-0.21 72,11.66 24.31,13.06 43.4,35.49 52.29,61.63 6.11,17.69 7.53,36.92 4.35,55.35 7.82,13.75 10.53,30.3 7.36,45.81 -3.35,17.11 -13.9,32.62 -28.49,42.15 -20.2,13.58 -47.95,14.35 -68.99,2.17 -23.43,4.03 -48.14,0.54 -69.34,-10.28 C 53.27,214.72 33.62,192.82 24.01,166.97 17.05,148.5 15.3,128.18 18.61,108.74 10.62,94.75 8.03,77.84 11.44,62.1 14.82,46.02 24.55,31.41 38,21.99 Z" style="fill:#ffffff;fill-opacity:1"/> <path style="fill:#00aff0;fill-opacity:1" id="path8" d="m 49,34.98 c 12.35,-8.29 28.55,-10.36 42.62,-5.57 5,1.59 9.5,4.34 14.02,6.93 17.64,-3.85 36.36,-3.29 53.43,2.82 27.17,9.39 49.35,31.92 58.27,59.25 5.66,16.66 6.04,34.8 2.31,51.93 4.4,7.21 8.19,15.01 9.08,23.51 2.18,16.01 -4.34,32.79 -16.61,43.27 -11.98,10.56 -29.28,14.58 -44.7,10.37 -6.15,-1.49 -11.66,-4.68 -17.08,-7.83 -18.58,4.07 -38.36,3.17 -56.13,-3.82 C 67.98,205.85 46.85,183.53 38.38,156.77 32.95,140.32 32.68,122.5 36.35,105.64 30.68,96.8 26.67,86.62 26.87,75.97 26.72,59.73 35.4,43.82 49,34.98 Z"/> <path id="path10" d="m 113.41,60.77 c 15.99,-2.42 32.84,0.03 47.11,7.77 6.24,3.46 12.28,8.14 15.18,14.86 1.89,4.42 2.1,10.19 -1.39,13.89 -3.78,3.87 -9.95,5.06 -15.02,3.43 -5.87,-2.46 -8.79,-8.61 -13.77,-12.27 -6.26,-5.16 -14.69,-6.55 -22.58,-6.41 -5.77,0.25 -11.95,1.56 -16.16,5.8 -3.89,4.15 -5.33,11.26 -1.54,15.93 3.58,4.13 9.11,5.67 14.18,7.08 9.67,2.42 19.45,4.37 29.16,6.66 10.1,2.31 20.3,6.73 26.97,14.96 11.5,14.9 8.91,38.53 -5.39,50.73 -11.44,10.13 -27.35,12.93 -42.17,13.02 -15.82,-0.23 -32.73,-3.47 -44.89,-14.29 -6.1,-5.5 -11.23,-13.8 -9.39,-22.29 2.01,-8.44 13.6,-11.64 20.17,-6.45 5.02,4.03 7.74,10.16 12.58,14.37 5.79,5.31 13.86,7.42 21.58,7.23 7.57,0.2 15.61,-2.12 20.8,-7.88 3.53,-3.89 5.4,-9.81 3.11,-14.79 -1.88,-4.68 -6.71,-7.23 -11.33,-8.49 -8.52,-2.23 -17.1,-4.26 -25.62,-6.51 -9.36,-2.29 -19.09,-4.38 -27.14,-9.96 -6.28,-4.17 -11.04,-10.68 -12.57,-18.1 -2.57,-11.64 -0.73,-25.07 7.73,-33.96 7.74,-8.61 19.22,-12.61 30.39,-14.33 z" style="fill:#ffffff;fill-opacity:1"/> </g> </g> <g transform="translate(331.00488,226.69551)" id="g2465"> <rect style="display:inline;opacity:1;fill:url(#linearGradient2407);fill-opacity:1;stroke:none;stroke-width:0.21065551;stroke-opacity:1" id="rect2383" width="876.97821" height="876.97815" x="-994.11407" y="-511.90573" ry="93.097458"/> <g id="g2369" transform="matrix(0.35477037,0,0,0.35477037,-874.67985,-390.52583)" style="display:inline;fill:#ffffff;fill-opacity:1"> <path id="path2363" d="m 682.283,1.104 c -78.94,3.815 -162.28,13.791 -225.96,27.291 -43.139,9.392 -149.37,44.899 -152.01,50.768 -0.587,1.467 -2.934,2.347 -5.284,2.347 -2.347,0 -4.106,1.174 -4.106,2.642 0,1.467 -2.347,3.522 -5.282,4.402 -7.925,2.64 -23.477,18.487 -31.4,32.28 -7.044,12.03 -25.24,93.61 -76.594,340.7 -19.659,94.785 -15.844,83.93 -30.517,91.559 -33.16,17.607 -44.019,24.943 -63.973,43.43 -40.204,37.27 -63.68,75.711 -78.94,129.416 C 0.88,752.054 0,759.686 0,799.007 c 0,36.682 1.173,48.127 6.749,68.67 13.498,49.887 37.27,90.383 72.776,125.011 25.24,24.356 44.314,36.389 81.288,51.355 42.843,17.02 53.997,19.074 106.232,19.074 39.908,-0.292 50.474,-1.172 70.134,-6.75 97.134,-27.877 167.269,-98.307 192.8,-194.267 9.684,-35.215 9.684,-95.96 0,-132.055 -3.522,-13.793 -6.749,-26.41 -7.042,-27.878 -0.295,-1.76 -5.576,-12.326 -11.445,-23.769 -15.848,-31.108 -37.561,-59.278 -59.866,-77.474 -10.856,-8.803 -23.477,-19.366 -28.171,-23.475 l -8.216,-7.337 -2.055,-248.262 -1.76,-248.264 12.324,-4.695 c 6.752,-2.641 15.848,-4.989 20.249,-4.989 4.402,0 12.618,-1.467 18.195,-3.227 27.291,-8.215 233.298,-22.304 275.848,-19.074 60.746,4.99 99.48,9.096 139.391,14.672 20.541,2.64 85.687,17.9 130.587,30.226 48.125,13.206 148.196,49.887 175.779,64.56 7.043,3.815 14.085,6.75 15.552,6.75 6.456,0 95.373,47.54 99.19,53.116 0.88,1.172 4.987,3.519 9.388,5.282 17.903,6.749 104.765,67.787 140.275,98.6 25.235,22.008 96.252,95.08 112.684,116.501 21.717,28.171 54.29,76.006 65.44,96.253 10.858,19.37 25.532,47.832 25.827,49.888 0,0.879 3.227,7.044 6.749,13.793 15.552,29.932 44.018,118.848 52.234,163.747 14.38,79.232 17.315,190.746 7.044,264.11 -3.23,22.596 -5.869,44.606 -5.869,49.3 0,4.401 -6.164,26.998 -13.5,49.887 -16.433,51.942 -20.835,62.8 -39.03,102.417 -4.99,10.858 -9.096,21.13 -9.096,22.888 0,1.468 -1.175,2.935 -2.934,2.935 -1.467,0 -2.935,1.763 -2.935,3.817 0,7.63 -56.93,98.308 -67.494,107.697 -1.175,0.881 -6.752,7.923 -12.621,15.847 -35.507,46.952 -106.817,113.86 -170.79,160.225 -11.153,7.924 -26.997,19.662 -35.213,25.531 -33.163,24.357 -139.1,79.529 -192.214,100.363 -8.804,3.522 -18.782,7.628 -22.009,9.096 -32.867,14.968 -127.068,46.952 -138.219,46.952 -2.934,0 -9.096,1.175 -14.086,2.643 -20.54,6.456 -77.473,19.662 -92.731,22.009 -5.576,0.588 -29.932,4.694 -54.29,8.512 -51.062,8.508 -116.501,13.79 -169.03,13.79 -51.648,0 -154.944,-7.63 -202.189,-14.965 -21.717,-3.523 -46.073,-7.337 -54.289,-8.512 -14.674,-2.347 -29.64,-5.87 -54.29,-12.91 -7.337,-2.347 -19.074,-5.577 -26.41,-7.632 -12.62,-3.519 -22.01,-7.041 -38.737,-14.673 -6.75,-3.227 -9.391,-2.935 -17.608,1.175 -5.281,2.934 -15.848,8.217 -23.475,12.326 -7.924,3.815 -14.086,8.216 -14.086,9.976 0,3.817 13.498,10.566 26.41,13.206 5.575,1.175 17.02,5.576 24.944,10.27 22.89,12.621 91.559,33.747 146.728,45.194 12.91,2.641 29.345,6.456 36.682,7.924 7.336,1.76 21.13,4.4 30.813,5.574 9.683,1.175 26.998,3.521 38.15,5.284 57.515,9.389 86.273,10.855 198.08,10.855 115.328,0 139.393,-1.466 205.42,-12.03 91.85,-14.673 202.189,-44.018 262.643,-70.137 16.14,-6.749 34.627,-14.085 41.083,-16.14 38.441,-12.03 135.574,-62.505 196.615,-102.122 22.302,-14.672 82.167,-58.396 96.545,-70.721 49.594,-42.552 104.177,-97.428 138.511,-139.686 30.813,-37.855 77.178,-112.393 102.123,-164.04 66.906,-138.806 90.09,-307.543 64.56,-465.421 -12.62,-78.354 -33.748,-142.032 -72.19,-218.33 -34.626,-69.257 -42.258,-80.408 -119.144,-177.835 -42.55,-53.701 -115.327,-119.142 -186.344,-167.27 -16.433,-11.15 -31.398,-21.42 -32.865,-22.887 -1.764,-1.468 -9.39,-6.457 -17.314,-11.152 -7.63,-4.696 -17.608,-10.858 -21.717,-13.5 -20.542,-12.911 -98.893,-53.407 -125.304,-64.852 -12.913,-5.577 -29.346,-12.619 -36.681,-16.141 -7.337,-3.227 -19.076,-7.924 -26.412,-10.27 -7.335,-2.643 -20.542,-7.337 -29.345,-10.859 C 1104.271,41.015 1003.909,17.245 905.309,5.507 865.692,0.809 741.854,-1.537 682.283,1.104 Z" style="fill:#ffffff;fill-opacity:1"/> <path id="path2365" d="m 638.265,126.115 c -65.735,3.227 -64.268,2.056 -32.868,23.77 31.692,22.008 64.269,51.354 92.439,83.05 30.225,34.04 34.335,39.029 34.335,42.255 0,1.763 0.88,2.935 2.346,2.935 1.176,0 6.75,7.044 12.327,15.26 5.574,8.511 11.15,16.727 12.325,18.487 2.934,3.522 24.65,36.39 33.748,51.062 3.518,5.87 9.095,15.845 12.03,22.302 14.673,30.225 39.321,83.047 42.256,89.504 1.467,4.11 4.697,11.15 6.752,16.14 2.052,4.697 5.573,14.085 8.216,20.542 2.347,6.456 8.508,21.716 13.206,33.747 17.02,42.258 30.812,106.523 30.812,142.326 0,32.28 -4.402,43.43 -24.651,60.453 -11.151,9.389 -14.378,13.79 -14.378,20.542 0,10.563 26.116,61.918 42.844,84.807 16.727,22.596 51.062,73.363 51.062,75.418 0,0.88 4.107,6.457 8.804,12.618 4.986,6.164 8.804,12.033 8.804,12.913 0,0.88 4.986,9.391 10.855,18.487 14.38,22.302 16.435,25.531 26.706,46.953 12.03,24.652 13.205,29.053 10.859,43.726 -2.055,14.966 -19.37,34.92 -36.682,42.844 -23.476,10.563 -32.868,14.084 -38.15,14.084 -9.978,0 -30.52,9.1 -37.269,16.728 -9.683,10.272 -8.803,24.943 3.815,50.768 15.26,31.987 13.793,43.725 -8.804,68.668 -5.87,6.457 -10.564,13.207 -10.564,14.966 0,1.762 3.815,7.044 8.804,11.739 7.63,7.335 8.804,10.565 8.804,24.651 0,15.848 -0.295,16.432 -16.14,31.104 l -16.14,15.261 v 22.304 c 0,22.01 2.64,36.974 10.563,63.386 2.347,7.335 4.11,17.314 4.11,22.3 0,12.326 -9.687,39.617 -20.542,59.28 l -8.804,15.551 h 7.629 c 9.39,0 64.267,-10.562 86.277,-16.724 48.712,-13.5 123.251,-39.911 159.933,-56.639 79.817,-36.682 135.574,-66.907 152.596,-82.46 4.987,-4.401 19.66,-15.848 33.16,-25.531 64.561,-45.777 133.522,-118.85 178.42,-188.986 21.422,-33.16 54.29,-103.001 62.801,-132.935 1.172,-4.99 4.695,-16.14 7.336,-24.943 2.64,-8.804 5.87,-22.01 7.041,-29.346 1.468,-7.336 3.815,-19.954 5.577,-27.878 9.392,-44.31 12.91,-145.26 6.161,-189.866 -8.215,-58.104 -19.954,-101.534 -40.496,-150.542 -3.521,-8.216 -27.878,-56.344 -36.094,-71.017 -3.814,-6.454 -15.552,-24.356 -26.707,-39.616 -62.504,-86.274 -129.704,-146.727 -238.283,-214.223 -64.56,-40.2 -92.733,-52.82 -212.462,-96.253 -74.83,-26.998 -177.54,-49.591 -267.337,-58.69 -33.16,-3.522 -62.8,-6.457 -66.028,-7.04 -3.229,-0.297 -26.41,0.291 -51.354,1.758 z" style="fill:#ffffff;fill-opacity:1"/> <path id="path2367" d="m 479.8,358.532 v 206.59 l 27.29,22.01 c 28.465,23.184 60.45,55.173 79.82,79.82 6.457,7.925 12.618,15.26 13.498,16.14 0.88,0.88 9.099,12.034 17.902,24.945 36.974,53.701 63.678,110.633 81.285,173.137 9.979,34.627 20.837,110.926 20.837,145.261 -0.295,57.81 -19.074,169.911 -34.923,208.353 -3.226,7.337 -12.03,29.053 -19.662,48.42 -7.628,19.37 -21.126,49.007 -29.93,66.028 -8.803,17.022 -18.195,34.63 -20.541,39.616 -9.979,19.37 -32.28,51.65 -57.519,83.635 -14.673,18.49 -30.519,39.324 -34.92,46.073 l -7.924,12.325 11.152,2.055 c 5.869,0.88 18.782,3.814 28.466,6.161 21.128,5.282 114.447,12.914 134.989,11.151 8.216,-0.88 24.063,-2.051 35.214,-2.934 30.812,-2.052 58.395,-11.739 76.59,-26.996 9.1,-7.631 21.422,-28.761 26.412,-44.606 7.335,-24.356 5.28,-45.193 -9.684,-90.09 -3.815,-11.447 -6.749,-23.77 -6.749,-27.292 0,-9.978 6.749,-20.837 23.182,-36.977 8.51,-8.216 14.967,-17.02 14.967,-20.542 0,-3.227 -5.869,-12.03 -13.206,-19.074 -7.336,-7.041 -13.205,-15.553 -13.205,-18.488 0,-3.226 8.804,-14.963 19.367,-26.115 17.607,-18.781 19.075,-21.13 17.02,-29.64 -0.88,-5.282 -3.523,-11.447 -5.281,-13.793 -8.217,-10.564 -19.368,-42.552 -19.368,-56.345 0,-21.125 21.126,-36.973 69.255,-51.937 25.532,-7.924 31.4,-10.86 40.496,-20.838 7.337,-7.924 10.567,-14.673 10.567,-20.541 0,-11.153 -17.316,-45.78 -33.455,-66.909 -6.457,-8.803 -18.783,-26.703 -26.704,-39.909 -8.22,-13.205 -22.597,-35.801 -32.28,-50.182 -46.366,-71.309 -59.867,-93.906 -67.203,-113.273 -4.99,-13.205 -4.99,-13.793 0.88,-25.531 3.522,-6.75 9.979,-16.432 14.38,-21.717 31.105,-36.387 34.04,-51.646 19.367,-103.88 -2.347,-8.218 -4.106,-17.316 -4.106,-19.956 0,-5.868 -27.291,-89.503 -33.747,-103.592 -2.348,-4.986 -4.403,-9.683 -4.403,-10.562 0,-2.643 -19.662,-45.194 -34.335,-73.952 C 704.584,317.449 629.752,223.543 568.127,183.34 547.88,169.842 501.512,151.94 487.135,151.94 h -7.337 v 206.592 h 10e-4 z" style="fill:#ffffff;fill-opacity:1"/> </g> </g> </g> </g> </svg>