<?xml version="1.0" standalone="no"?>
<!DOCTYPE svg PUBLIC "-//W3C//DTD SVG 20010904//EN"
 "http://www.w3.org/TR/2001/REC-SVG-20010904/DTD/svg10.dtd">
<svg version="1.0" xmlns="http://www.w3.org/2000/svg"
 width="1280.000000pt" height="853.000000pt" viewBox="0 0 1280.000000 853.000000"
 preserveAspectRatio="xMidYMid meet">
<g transform="translate(0.000000,853.000000) scale(0.100000,-0.100000)"
fill="#000000" stroke="none">
<path d="M6257 8036 c-113 -47 -194 -121 -224 -207 l-17 -47 -90 -12 c-431
-57 -905 -210 -1255 -404 -46 -25 -86 -44 -89 -41 -3 3 18 58 47 122 29 65 54
123 57 128 4 9 -124 51 -131 43 -3 -4 -104 -260 -132 -338 l-20 -55 -152 -3
c-123 -2 -151 0 -151 11 0 17 72 274 94 336 9 24 16 47 16 51 0 6 -110 30
-137 30 -12 0 -30 -59 -83 -275 l-37 -150 -49 -7 c-27 -3 -77 -7 -112 -7 -74
-1 -75 -3 -91 -124 -18 -129 -19 -125 37 -117 26 4 74 10 108 14 l61 7 -17
-101 -17 -102 -58 -58 c-50 -50 -67 -61 -112 -70 l-53 -11 0 -45 c0 -41 -7
-53 -83 -147 -426 -526 -689 -1127 -787 -1796 -20 -138 -23 -147 -55 -182 -84
-94 -112 -194 -125 -457 -10 -205 -19 -246 -74 -348 -29 -52 -34 -69 -25 -80
6 -8 14 -14 18 -14 3 0 56 63 116 140 83 106 112 135 116 122 4 -9 14 -82 23
-162 31 -261 98 -538 198 -810 65 -178 225 -501 331 -670 74 -119 83 -136 68
-146 -9 -6 -121 -84 -249 -172 -128 -88 -232 -164 -230 -169 2 -4 77 -33 168
-64 91 -31 199 -69 240 -84 97 -36 221 -45 269 -20 34 17 61 65 61 108 0 93
-78 204 -189 267 -33 19 -61 38 -61 41 0 4 12 15 27 24 27 18 27 18 52 -16
165 -217 383 -450 568 -606 l113 -95 -25 -30 c-17 -20 -25 -42 -25 -66 0 -130
201 -224 387 -181 l49 11 129 -71 c403 -220 853 -361 1355 -423 140 -17 640
-17 780 0 293 36 534 90 786 176 799 271 1475 807 1927 1526 101 160 262 486
325 660 288 785 304 1632 48 2412 -146 445 -402 900 -694 1236 l-64 73 46 94
c60 123 120 175 225 195 189 36 470 -158 497 -342 8 -56 -7 -63 -50 -23 -52
49 -108 76 -171 82 -67 7 -95 0 -136 -34 -42 -35 -61 -83 -60 -153 1 -268 333
-433 490 -243 42 51 61 113 61 203 0 183 -88 350 -248 471 -289 219 -579 170
-688 -115 l-27 -68 -101 100 c-119 116 -218 203 -336 291 -47 35 -89 68 -94
72 -5 4 61 106 146 226 85 120 157 223 161 229 4 7 -4 19 -16 27 -24 15 -25
14 -181 -214 -87 -126 -159 -229 -161 -229 -16 0 -145 94 -142 104 2 6 68 114
146 240 78 126 140 230 139 231 -2 1 -13 7 -25 14 -24 12 -26 10 -213 -304
-46 -77 -87 -145 -92 -151 -6 -8 -43 8 -126 54 -467 260 -1011 415 -1575 448
-107 6 -116 8 -103 23 27 31 46 80 46 119 0 107 -134 155 -273 98z m483 -327
c358 -32 759 -137 1106 -289 124 -54 338 -164 380 -195 14 -10 8 -24 -47 -116
-34 -57 -63 -105 -64 -107 -1 -1 -31 14 -66 34 -509 289 -1063 434 -1660 434
l-206 0 -32 83 c-18 45 -35 88 -38 95 -4 9 1 11 19 7 33 -8 148 19 206 50 45
23 53 24 167 19 66 -3 172 -10 235 -15z m-650 -120 c28 -66 50 -122 48 -123
-4 -3 -277 -36 -296 -36 -11 0 -12 12 -7 51 10 71 -16 63 -29 -9 -8 -41 -14
-53 -30 -57 -12 -2 -87 -20 -168 -40 -374 -91 -733 -248 -1051 -461 -84 -56
-154 -100 -155 -99 -2 2 10 50 28 106 l31 102 98 -6 98 -6 37 91 c20 50 35 92
33 95 -2 2 -41 6 -87 10 -97 7 -100 3 63 91 330 180 757 324 1127 381 74 11
146 22 160 24 14 3 30 5 36 6 7 0 35 -53 64 -120z m681 -204 c273 -32 559
-102 807 -199 136 -53 383 -171 462 -221 l39 -25 -48 -77 c-26 -43 -52 -85
-57 -95 -8 -14 -23 -8 -122 47 -288 160 -659 284 -1005 336 -88 13 -220 24
-346 28 l-204 6 -42 107 -42 107 36 5 c65 8 394 -4 522 -19z m-560 -85 c21
-52 38 -100 38 -106 1 -7 -49 -16 -131 -23 -72 -7 -137 -15 -144 -18 -34 -13
-134 120 -134 179 0 25 4 27 68 37 92 16 212 29 241 27 20 -1 29 -15 62 -96z
m-411 32 c0 -34 30 -119 54 -155 l25 -36 -57 -11 c-105 -21 -316 -78 -420
-115 -388 -135 -718 -331 -1051 -623 -37 -33 -61 -48 -61 -39 0 20 39 207 45
217 3 5 43 11 90 15 l85 7 25 80 c14 43 25 81 25 83 0 2 -24 5 -52 7 l-53 3
66 47 c319 229 745 418 1154 513 123 29 125 29 125 7z m2578 -200 c29 -19 51
-38 50 -42 -8 -21 -134 -199 -141 -200 -4 0 -36 19 -71 43 l-64 42 66 107 c74
120 60 116 160 50z m-1788 -13 c424 -30 778 -126 1155 -315 210 -105 197 -87
140 -184 -26 -44 -51 -80 -56 -80 -5 0 -46 21 -91 46 -197 109 -491 222 -697
269 -151 33 -366 63 -525 72 l-128 8 -29 78 c-47 130 -49 117 23 117 35 0 128
-5 208 -11z m-302 -16 c4 -15 -104 -18 -173 -6 l-40 7 35 7 c58 11 173 6 178
-8z m-190 -64 c81 -28 165 -62 187 -77 l40 -27 -75 -8 c-179 -18 -388 -49
-484 -72 -700 -165 -1315 -597 -1703 -1197 -42 -65 -83 -118 -90 -118 -31 0
-112 -52 -163 -103 -69 -70 -125 -162 -153 -252 -18 -56 -22 -94 -22 -191 0
-107 3 -127 24 -172 l24 -52 -22 -127 c-31 -181 -31 -176 -41 -345 -20 -344
28 -703 140 -1037 41 -122 46 -148 36 -163 -11 -16 -14 -14 -30 19 -39 83 -99
137 -190 174 -40 16 -41 18 -63 105 -57 218 -93 481 -93 675 l0 107 39 -10
c33 -8 47 -7 78 8 85 42 78 169 -15 262 -26 26 -55 52 -66 57 -18 10 -18 14
-1 119 102 655 447 1293 935 1733 404 365 866 600 1405 717 61 14 120 25 133
25 13 1 89 -22 170 -50z m2459 -35 c114 -85 267 -220 375 -327 l96 -98 -40
-97 c-22 -53 -41 -98 -42 -99 -1 -1 -24 6 -53 16 -40 14 -74 39 -155 116 -118
112 -255 229 -345 295 -34 25 -61 49 -60 53 6 19 133 196 141 197 5 0 43 -25
83 -56z m-4227 4 c0 -7 -13 -60 -29 -118 -16 -58 -31 -114 -33 -124 -3 -18
-19 -22 -138 -37 -74 -9 -137 -15 -139 -13 -2 2 0 23 3 47 6 42 13 50 126 143
90 74 129 101 157 105 21 3 41 7 46 8 4 0 7 -5 7 -11z m-250 -37 c-25 -21 -47
-38 -48 -36 -2 2 -1 17 3 34 6 29 14 34 75 39 8 1 -5 -16 -30 -37z m4110 -97
c30 -21 57 -38 59 -40 3 -3 -99 -155 -119 -177 -4 -4 -34 11 -68 33 l-61 41
47 77 c27 42 52 83 56 90 11 19 27 15 86 -24z m-1816 -9 c3 -8 12 -15 21 -15
8 0 15 7 15 15 0 18 5 18 180 5 149 -12 327 -37 350 -51 9 -5 10 -9 3 -9 -7 0
-28 -14 -48 -31 -25 -22 -37 -43 -41 -70 -4 -22 -9 -41 -13 -43 -3 -2 -46 3
-96 10 -49 7 -111 13 -137 13 -45 1 -61 12 -38 26 6 3 10 11 10 17 0 6 -10 2
-22 -9 -21 -19 -40 -21 -213 -26 -369 -12 -700 -87 -1004 -228 -48 -22 -99
-39 -120 -39 -65 -1 -158 -55 -206 -120 -11 -15 -76 -69 -145 -121 -224 -168
-441 -396 -591 -622 -34 -50 -63 -94 -65 -96 -1 -1 -20 10 -41 27 -21 16 -55
35 -75 42 -21 6 -38 14 -38 16 0 13 150 225 219 311 111 138 334 352 481 462
460 343 964 519 1571 549 25 1 39 -3 43 -13z m1992 -117 c90 -67 181 -145 274
-234 l76 -72 -64 -7 c-40 -4 -84 -17 -119 -36 l-56 -30 -36 31 c-65 55 -225
185 -253 205 l-28 20 62 88 c33 48 64 87 68 87 4 0 38 -23 76 -52z m-871 -99
c85 -37 275 -136 294 -154 11 -11 6 -24 -29 -84 -23 -39 -43 -71 -45 -71 -1 0
-63 31 -136 69 -144 75 -244 117 -379 162 -47 15 -78 30 -70 32 8 3 35 10 59
17 50 13 101 58 101 89 0 20 1 20 68 -5 37 -14 99 -39 137 -55z m593 -44 c3
-3 -87 -143 -104 -164 -4 -5 -114 67 -114 74 0 3 12 24 27 48 14 23 37 59 50
80 l23 37 58 -36 c31 -20 59 -38 60 -39z m-1588 19 c-14 -36 -12 -89 3 -127 8
-19 11 -40 6 -52 -13 -34 -10 -104 6 -143 10 -22 56 -76 115 -133 86 -82 100
-100 100 -127 0 -19 5 -32 13 -32 9 0 29 89 67 290 30 160 57 295 60 300 7 11
158 -24 305 -70 159 -51 405 -163 503 -228 9 -6 -12 -49 -83 -166 -102 -168
-106 -176 -89 -183 6 -2 56 68 110 157 55 88 103 160 108 160 19 0 96 -56 92
-67 -3 -6 -50 -77 -105 -157 -56 -79 -101 -150 -101 -156 0 -29 33 8 134 149
l108 152 37 -27 c219 -163 426 -378 581 -602 24 -34 41 -64 38 -67 -2 -2 -22
1 -44 7 -59 16 -191 14 -256 -5 -64 -19 -132 -67 -165 -116 -46 -69 -89 -220
-78 -273 14 -64 159 -89 272 -46 66 24 154 102 204 179 17 27 35 49 40 49 5 0
49 -16 98 -36 l89 -35 31 -70 c82 -182 153 -435 188 -666 21 -138 23 -507 4
-643 -18 -130 -58 -319 -71 -335 -5 -7 -34 -15 -64 -18 -100 -10 -160 -55
-291 -221 -64 -81 -87 -103 -127 -120 -26 -11 -48 -24 -48 -28 0 -15 229 -4
372 18 l38 6 -29 -64 c-40 -90 -112 -216 -189 -331 l-65 -98 -12 28 c-27 62
-106 113 -175 113 -42 0 -136 -38 -193 -77 -72 -49 -186 -163 -231 -232 -46
-70 -76 -144 -76 -189 1 -61 50 -132 115 -165 l29 -15 -109 -72 c-192 -125
-466 -249 -685 -309 -58 -16 -68 -17 -76 -4 -8 12 -19 9 -74 -16 -36 -16 -68
-26 -71 -23 -4 4 -22 47 -40 95 l-34 88 -35 -6 c-19 -4 -38 -10 -42 -14 -5 -4
6 -46 24 -94 17 -48 29 -89 26 -92 -7 -8 -197 -27 -207 -21 -5 3 -16 36 -25
74 l-17 67 -40 -3 c-21 -2 -41 -7 -43 -11 -4 -7 7 -72 20 -113 5 -16 -5 -18
-105 -18 -113 0 -307 17 -328 29 -8 4 17 42 77 115 133 162 377 512 365 524
-2 2 -47 12 -101 23 -125 25 -310 87 -403 133 l-71 36 -101 -81 c-103 -81
-247 -181 -374 -259 -65 -40 -70 -41 -80 -24 -25 47 -105 113 -161 134 -112
42 -174 37 -195 -17 -7 -20 -5 -35 11 -69 36 -74 143 -136 235 -138 44 0 63 7
126 44 121 71 287 184 396 269 l102 80 84 -39 c112 -51 241 -96 361 -125 54
-14 101 -27 104 -29 10 -11 -197 -298 -330 -457 l-37 -44 -28 27 c-37 36 -88
56 -169 67 -94 14 -161 0 -197 -40 l-28 -31 -92 33 c-352 127 -738 395 -995
693 -151 174 -342 464 -342 518 0 11 16 38 36 60 65 73 69 90 69 313 0 181 2
203 19 232 46 76 -6 38 -138 -100 l-143 -149 -21 74 c-57 193 -90 398 -97 618
-6 149 -5 154 11 130 41 -59 152 -158 209 -185 119 -59 247 -42 310 40 59 79
70 197 26 284 -46 89 -148 125 -197 68 -46 -54 -43 -112 8 -150 18 -13 34 -18
52 -13 31 8 60 59 52 91 -3 13 0 27 8 34 25 21 65 -26 78 -90 10 -49 9 -60 -8
-94 -28 -59 -73 -80 -164 -79 -87 1 -164 25 -236 75 -62 43 -133 117 -141 148
-7 27 10 177 34 301 16 83 18 86 69 133 90 81 178 243 219 403 12 43 19 108
19 174 l1 105 64 95 c124 185 269 352 420 484 90 79 225 186 234 186 3 0 8
-39 11 -87 17 -212 50 -445 87 -604 l20 -87 96 60 c112 71 250 138 366 178
l82 29 7 43 c4 24 16 104 28 178 11 74 36 202 56 283 l36 148 32 -8 c107 -28
286 32 327 108 29 54 -30 109 -117 109 -78 0 -146 -25 -199 -73 -46 -42 -46
-43 -85 -197 -33 -133 -83 -399 -92 -494 -3 -27 -10 -31 -110 -66 -125 -44
-267 -111 -357 -170 -35 -22 -65 -40 -67 -38 -12 13 -61 354 -78 554 l-5 61
53 6 c69 7 126 37 192 99 62 58 88 107 79 147 -6 27 -3 31 51 55 179 82 420
153 625 185 176 27 179 28 356 29 l153 2 -10 -26z m243 4 c68 -8 87 -14 87
-27 0 -35 -44 -271 -51 -271 -17 0 -187 112 -217 143 -36 37 -48 84 -38 143
l7 36 62 -6 c34 -3 101 -11 150 -18z m1472 -117 c142 -109 224 -185 218 -201
-31 -79 -42 -122 -43 -163 l0 -49 -92 85 c-51 46 -137 118 -190 159 l-96 76
54 76 c31 42 59 76 63 76 5 0 43 -27 86 -59z m-3999 26 c-14 -59 -47 -283 -43
-298 3 -10 -17 -41 -51 -80 -270 -309 -480 -674 -606 -1050 -44 -134 -90 -316
-110 -439 -9 -52 -18 -109 -21 -126 -4 -25 -11 -33 -35 -37 -17 -4 -66 -40
-120 -88 l-91 -81 7 69 c20 225 68 476 131 683 97 325 285 704 475 962 54 72
58 76 115 89 l58 14 3 64 3 64 136 139 c75 76 141 138 146 138 5 0 7 -10 3
-23z m-197 -64 c-35 -38 -67 -69 -70 -71 -8 -4 6 96 15 105 4 5 31 13 59 19
29 7 54 12 56 13 2 0 -25 -29 -60 -66z m5128 -30 c71 -82 175 -222 247 -333
482 -734 675 -1607 550 -2485 -104 -739 -459 -1450 -992 -1993 l-112 -114
-150 7 c-83 4 -164 10 -181 14 l-31 6 68 55 c98 79 316 298 412 414 168 204
307 419 427 661 168 342 268 675 321 1070 22 163 25 588 6 750 -40 333 -121
649 -237 924 -45 108 -46 109 -49 237 -2 115 -6 139 -35 224 -17 52 -50 126
-73 164 -47 79 -158 201 -239 261 l-56 41 31 77 c17 42 34 77 38 77 3 0 28
-26 55 -57z m-5311 15 c-3 -13 -8 -65 -11 -117 l-6 -94 -63 -81 c-312 -400
-555 -956 -637 -1458 l-13 -76 -60 -7 c-34 -3 -92 -17 -131 -30 -38 -13 -71
-23 -72 -22 0 1 7 56 17 123 89 578 328 1138 690 1618 90 120 96 124 177 146
97 26 114 25 109 -2z m4066 -29 l48 -31 -17 -28 c-10 -16 -32 -49 -50 -74
l-32 -46 -51 32 c-27 17 -50 33 -50 36 0 14 84 142 93 142 6 0 32 -14 59 -31z
m-1168 -194 c15 -32 21 -75 11 -75 -14 0 -94 57 -138 98 -60 56 -77 88 -77
142 l0 42 94 -87 c52 -48 102 -102 110 -120z m1356 56 c47 -36 138 -117 204
-181 91 -88 126 -130 151 -180 36 -71 106 -168 154 -214 l30 -29 -40 -79 -40
-80 -51 74 c-130 190 -365 437 -536 563 -45 33 -81 62 -81 65 0 3 22 36 50 73
31 43 54 65 62 61 7 -4 50 -37 97 -73z m755 14 l48 -55 -48 -110 c-26 -61 -51
-109 -55 -108 -3 2 -51 54 -105 117 -77 90 -96 117 -88 129 25 40 110 81 170
82 26 0 39 -9 78 -55z m214 -60 c95 -69 176 -171 236 -296 37 -77 69 -200 63
-243 -2 -22 -11 -12 -55 67 -67 121 -179 290 -259 394 -41 52 -62 87 -58 97 9
23 21 20 73 -19z m-446 -102 c79 -85 147 -171 147 -184 -1 -8 -13 -38 -29 -68
l-28 -54 -34 44 c-51 64 -68 94 -90 157 -17 49 -27 152 -14 152 2 0 24 -21 48
-47z m390 -28 c26 -35 47 -70 47 -77 1 -7 9 -38 20 -68 36 -101 18 -196 -42
-230 -15 -8 -29 -12 -31 -10 -2 3 -38 56 -80 118 l-76 112 52 110 c29 60 54
109 57 109 3 0 26 -29 53 -64z m208 -313 c27 -46 68 -120 90 -165 39 -76 40
-83 29 -120 -12 -42 -106 -147 -131 -147 -8 0 -37 46 -70 113 l-56 112 28 44
c46 71 59 184 33 269 -10 29 23 -15 77 -106z m-336 6 c50 -75 53 -83 35 -86
-25 -4 -150 52 -150 67 0 17 43 101 52 101 4 0 33 -37 63 -82z m-162 -207 c42
-63 129 -223 124 -228 -5 -5 -185 61 -230 83 l-27 15 31 52 c16 29 38 67 46
85 9 17 20 32 24 32 3 0 18 -17 32 -39z m174 -44 c45 -8 71 -8 98 0 l36 11 55
-110 c30 -61 52 -113 49 -117 -4 -3 -49 -6 -101 -5 -69 0 -98 4 -108 15 -7 8
-39 63 -70 123 -43 81 -53 107 -39 101 10 -4 46 -12 80 -18z m561 -247 c82
-212 144 -451 185 -710 29 -187 32 -700 4 -885 -57 -380 -156 -699 -313 -1014
-215 -431 -501 -790 -871 -1093 l-75 -61 -142 18 c-77 10 -149 21 -158 24 -14
5 2 21 70 68 153 109 254 194 398 338 231 230 387 440 548 738 38 70 51 87 64
81 65 -27 118 -6 159 63 39 67 39 162 0 248 l-28 60 36 130 c86 315 109 489
110 830 0 233 -4 291 -24 425 -27 178 -74 380 -124 529 l-35 104 48 59 c27 33
59 84 72 113 13 30 26 51 29 47 4 -4 25 -54 47 -112z m-1094 30 c36 -12 66
-25 66 -30 0 -4 -18 -32 -41 -60 -97 -123 -288 -137 -335 -25 -13 31 -13 39 0
64 36 69 176 92 310 51z m-4498 -62 c-8 -18 -92 -229 -99 -250 -9 -27 -25 -22
-47 15 -26 42 -25 92 3 147 17 35 34 51 76 73 60 30 76 33 67 15z m193 -14
c23 -9 41 -20 39 -23 -2 -4 -28 -69 -58 -144 l-55 -137 -50 0 c-27 0 -67 5
-88 11 -33 9 -37 13 -31 32 15 52 78 215 96 251 19 38 21 38 63 33 24 -4 62
-14 84 -23z m121 -131 c0 -24 -7 -57 -15 -73 -17 -32 -67 -74 -103 -85 l-22
-6 25 67 c14 37 37 94 52 127 l27 59 18 -22 c11 -14 18 -39 18 -67z m4685 23
c49 -15 93 -30 96 -34 7 -8 69 -196 93 -282 93 -339 112 -780 50 -1155 -22
-130 -16 -121 -82 -121 -31 1 -72 -2 -91 -6 l-33 -8 6 33 c86 418 80 806 -19
1195 -27 109 -82 272 -120 358 -22 49 -23 56 -7 51 9 -2 57 -17 107 -31z m384
-96 c44 -136 88 -324 112 -480 27 -173 37 -527 20 -707 -19 -194 -68 -444
-117 -595 -14 -44 -17 -47 -36 -37 -20 11 -85 8 -154 -6 l-32 -7 33 109 c80
264 117 517 117 808 0 347 -37 562 -169 968 -4 14 1 17 38 17 24 1 67 9 94 19
28 10 53 16 56 12 4 -3 20 -49 38 -101z m-5466 -355 c20 -8 57 -15 83 -15 l46
0 -7 -37 c-4 -21 -15 -90 -25 -153 l-17 -115 -34 72 c-19 40 -40 72 -47 73
-16 0 -12 -16 35 -130 l35 -85 3 -185 c5 -264 43 -517 110 -729 19 -59 21 -78
12 -91 -28 -38 -112 -139 -118 -139 -11 -2 -99 294 -124 414 -67 328 -74 680
-19 1020 15 94 21 115 28 115 2 0 20 -7 39 -15z m-677 -152 c-4 -27 -11 -102
-16 -167 l-10 -120 -117 -120 c-64 -67 -121 -125 -126 -131 -11 -12 -3 460 8
487 13 33 168 94 243 97 23 1 24 -1 18 -46z m-350 -372 c-1 -120 -4 -217 -8
-215 -4 3 -17 34 -28 70 -25 81 -26 199 -4 275 15 51 31 89 38 89 1 0 2 -99 2
-219z m514 194 c0 -25 41 -104 70 -135 27 -28 27 -31 33 -207 7 -201 34 -400
77 -581 17 -68 30 -127 30 -132 0 -5 -12 -15 -27 -22 -65 -32 -85 -116 -45
-195 27 -53 97 -115 156 -139 47 -19 49 -21 108 -141 220 -451 533 -827 938
-1128 69 -51 104 -83 102 -94 -2 -9 -15 -60 -29 -113 l-26 -98 -96 67 c-269
185 -538 438 -724 682 l-72 93 30 25 c17 13 42 31 58 41 32 19 32 20 7 50
l-19 23 -60 -40 -60 -41 -76 122 c-150 241 -284 538 -364 805 -84 283 -121
523 -128 831 l-6 234 54 54 c56 57 69 64 69 39z m-165 -630 c65 -526 247
-1013 548 -1466 l17 -26 -105 -72 -105 -72 -56 87 c-320 495 -509 1049 -563
1644 -10 102 -9 106 13 130 12 14 67 74 122 134 l99 109 7 -169 c4 -93 14
-227 23 -299z m5961 -243 c-3 -21 -24 -95 -46 -163 l-39 -125 -98 -16 c-54 -8
-99 -15 -100 -14 0 0 23 73 52 161 50 150 55 161 87 177 19 10 57 17 92 18
l59 0 -7 -38z m-4830 -127 c21 -126 12 -212 -28 -267 l-23 -33 -9 70 c-4 39
-9 122 -10 185 -1 95 2 122 18 154 18 35 20 37 27 18 4 -11 16 -69 25 -127z
m4533 66 c-8 -10 -42 -58 -75 -107 -66 -95 -99 -130 -154 -163 -70 -42 -74
-28 -17 65 86 141 170 218 246 223 11 1 11 -2 0 -18z m5 -132 c-45 -129 -50
-139 -74 -139 -17 0 -12 15 42 125 34 68 64 123 65 121 2 -2 -13 -50 -33 -107z
m-4694 26 c0 -8 14 -64 31 -125 17 -61 29 -114 26 -116 -5 -5 -58 118 -84 194
-12 33 -12 46 -3 57 14 17 30 11 30 -10z m-51 -117 c13 -35 43 -104 66 -155
l43 -92 -20 -41 c-19 -37 -82 -100 -100 -100 -7 0 -99 182 -131 261 l-15 36
61 77 c33 42 63 76 66 76 3 0 17 -28 30 -62z m5031 -64 c-20 -59 -8 -179 23
-240 l26 -51 -77 -139 c-245 -444 -567 -795 -979 -1069 -68 -44 -75 -47 -118
-41 l-45 7 25 33 c34 45 55 99 55 143 0 37 4 42 88 103 273 202 496 438 684
725 84 128 193 336 249 474 22 54 41 86 54 91 27 10 29 7 15 -36z m-140 -91
c-145 -341 -386 -679 -668 -936 -87 -80 -272 -227 -285 -227 -3 0 -19 14 -35
30 -38 37 -84 40 -133 7 -41 -26 -89 -116 -89 -164 0 -34 -1 -35 -122 -93
-184 -87 -449 -179 -591 -204 -37 -7 -38 -6 -57 39 -11 26 -18 50 -15 54 2 4
34 20 70 36 51 22 64 31 60 45 -4 14 20 25 153 69 197 64 450 188 622 303 91
60 144 89 190 102 97 26 177 73 250 147 73 73 133 176 151 259 8 38 27 75 67
128 74 101 178 278 232 394 l43 95 96 15 c53 7 97 10 99 6 2 -4 -15 -51 -38
-105z m-5001 -159 c182 -365 451 -698 764 -943 73 -58 106 -90 103 -100 -3 -9
-15 -52 -27 -96 -12 -44 -24 -82 -26 -84 -1 -2 -53 34 -115 81 -372 279 -668
635 -878 1055 l-59 117 39 21 c22 11 56 42 76 68 20 27 38 47 40 44 2 -2 40
-75 83 -163z m301 -76 c192 -318 481 -618 790 -821 124 -81 407 -223 535 -267
49 -17 99 -40 110 -50 50 -47 114 -64 240 -66 66 0 152 -6 190 -13 39 -6 141
-14 227 -18 120 -5 158 -9 162 -20 7 -16 1 -19 -84 -36 -36 -8 -64 -18 -63
-23 0 -5 4 -30 8 -57 l7 -47 -88 6 c-130 9 -354 42 -470 69 -287 68 -602 200
-843 355 l-80 51 -3 56 c-4 66 -21 79 -38 29 -6 -20 -15 -36 -20 -36 -29 0
-286 229 -408 363 -126 138 -331 420 -358 492 -3 7 10 22 29 34 19 11 47 39
62 61 15 22 29 40 31 40 1 0 30 -46 64 -102z m3944 -252 c28 -14 66 -41 85
-60 l33 -34 -20 -29 c-11 -15 -54 -61 -95 -101 -73 -70 -76 -72 -104 -60 -81
35 -165 116 -179 174 -9 36 34 104 81 126 52 24 129 18 199 -16z m126 -216
c-23 -45 -71 -80 -110 -80 -22 0 -16 9 50 75 79 79 99 81 60 5z m-4521 -241
c92 -124 261 -308 386 -422 123 -112 355 -292 439 -342 38 -22 46 -32 42 -49
-2 -11 -8 -38 -11 -58 -8 -41 -16 -46 -34 -24 -39 47 -205 93 -300 83 l-59 -6
-64 50 c-122 98 -297 262 -402 377 -136 151 -259 309 -251 322 7 11 185 140
194 140 4 0 30 -32 60 -71z m-358 -229 c79 -41 102 -124 50 -182 l-29 -33
-114 2 c-106 1 -253 28 -253 46 0 3 56 47 125 97 136 99 153 104 221 70z
m1551 -123 c87 -56 236 -132 351 -181 330 -140 654 -211 1023 -223 l191 -6 12
-50 c6 -28 9 -52 7 -54 -4 -4 -69 -21 -139 -37 -23 -6 -26 -10 -21 -31 7 -30
10 -30 -187 -15 -267 21 -522 74 -763 157 -164 57 -337 133 -346 153 -4 8 -19
41 -34 73 -14 31 -48 87 -74 125 -63 87 -86 122 -78 122 3 0 29 -15 58 -33z
m-55 -101 c52 -48 126 -156 107 -156 -17 0 -244 142 -244 153 0 7 5 29 11 50
l10 37 29 -15 c16 -8 55 -39 87 -69z m2832 -17 c21 -24 41 -34 99 -48 40 -9
73 -21 74 -27 2 -15 -310 -167 -448 -218 -157 -58 -361 -118 -389 -114 -44 6
-26 34 46 68 39 19 73 38 75 42 3 4 -7 29 -20 57 l-25 49 123 40 c121 40 312
118 391 160 22 12 42 21 44 22 3 0 16 -14 30 -31z m-1139 -59 c-20 -13 -33
-13 -25 0 3 6 14 10 23 10 15 0 15 -2 2 -10z m-1743 -59 c55 -32 119 -69 143
-81 42 -22 42 -22 36 -67 -6 -43 -47 -133 -70 -152 -10 -8 -135 55 -251 126
-19 11 -19 13 -1 88 24 101 36 145 41 145 2 0 48 -27 102 -59z m3338 6 l150
-23 -121 -80 c-66 -45 -151 -98 -188 -119 -66 -37 -69 -37 -99 -22 -18 8 -58
38 -89 67 -83 74 -76 35 8 -46 l66 -64 -104 -49 c-298 -139 -601 -233 -912
-281 -72 -10 -131 -18 -132 -17 -6 6 -65 209 -62 212 1 2 57 11 122 20 66 9
123 18 127 20 3 3 23 -36 44 -86 41 -100 39 -99 122 -64 l32 14 -35 76 c-20
42 -34 79 -32 81 2 2 67 21 144 43 245 71 530 192 704 299 36 22 74 40 85 41
11 0 87 -10 170 -22z m-1356 -43 c10 -28 10 -38 1 -44 -17 -11 -208 -32 -221
-25 -28 18 1 40 91 71 52 18 100 33 105 33 6 1 17 -15 24 -35z m1651 -3 c0 -3
-16 -29 -35 -58 -76 -113 -220 -192 -352 -193 -24 0 -43 3 -43 8 1 4 48 35
105 70 57 34 142 91 190 126 65 48 91 62 110 58 14 -2 25 -7 25 -11z m255 -63
c-204 -180 -521 -386 -790 -514 -1014 -482 -2169 -466 -3178 44 -134 68 -166
88 -161 101 6 13 31 107 59 219 l5 22 53 -30 c28 -17 80 -45 114 -63 50 -25
62 -35 57 -49 -6 -19 20 -26 31 -8 4 6 29 -2 63 -19 80 -40 321 -134 422 -164
357 -107 645 -148 1020 -146 512 3 989 115 1440 338 114 57 115 57 155 43 56
-19 184 -11 257 17 31 12 96 47 145 78 190 121 230 143 283 157 30 7 57 12 59
10 2 -1 -14 -18 -34 -36z m-2235 -8 c0 -5 -19 -10 -42 -9 -33 0 -38 2 -23 9
28 12 65 12 65 0z m520 0 c-8 -5 -24 -9 -35 -9 l-20 0 20 9 c11 5 27 9 35 9
13 1 13 0 0 -9z m-1843 -59 c276 -120 574 -201 878 -236 71 -8 159 -15 195
-15 92 0 137 -9 146 -30 9 -17 13 -17 89 2 43 10 84 17 90 14 11 -4 60 -194
52 -202 -12 -12 -288 -15 -432 -5 -395 29 -750 114 -1095 264 -63 27 -117 51
-119 53 -3 2 5 14 17 27 24 26 72 118 72 139 0 13 9 28 16 28 2 0 43 -17 91
-39z m1696 20 c5 -22 8 -20 -141 -71 l-83 -29 -8 22 c-24 62 -26 61 94 78 60
9 115 17 121 18 7 0 14 -8 17 -18z m51 -172 c-33 -13 -50 -9 -24 5 14 8 29 12
34 8 5 -3 1 -9 -10 -13z"/>
<path d="M4356 3924 c-19 -18 -20 -28 -6 -55 20 -37 80 -18 80 26 0 42 -44 59
-74 29z"/>
<path d="M4160 3899 c-28 -52 28 -102 70 -64 11 10 20 26 20 36 0 45 -70 67
-90 28z"/>
<path d="M5084 2915 c-103 -96 -191 -175 -195 -175 -4 0 -10 9 -14 19 -3 10
-28 40 -56 66 -110 103 -239 116 -239 24 0 -98 168 -222 256 -189 16 6 67 48
114 93 47 45 101 97 121 115 l35 32 37 -95 c20 -52 37 -109 37 -126 0 -49 -35
-95 -93 -124 -47 -23 -49 -26 -18 -21 56 10 101 45 126 97 12 26 39 67 60 90
l37 42 -6 86 c-3 47 -8 114 -12 147 -4 41 -2 64 5 68 13 9 15 26 2 26 -5 0
-94 -79 -197 -175z m156 -1 c25 -87 23 -153 -6 -185 -19 -21 -19 -20 -36 52
-9 41 -17 95 -18 121 0 47 17 101 30 93 4 -2 17 -39 30 -81z"/>
</g>
</svg>
